<svg width="156" height="156" viewBox="0 0 156 156" fill="none" xmlns="http://www.w3.org/2000/svg">
<path d="M155.97 77.985C155.97 100.088 146.77 120.04 132.004 134.229C131.874 134.359 131.737 134.489 131.6 134.619C130.784 135.392 129.946 136.15 129.094 136.879C127.794 138.013 126.466 139.096 125.094 140.129C124.719 140.425 124.343 140.707 123.96 140.981C122.884 141.775 121.786 142.534 120.667 143.263C120.631 143.285 120.602 143.306 120.566 143.328C120.393 143.444 120.219 143.559 120.039 143.667C119.902 143.761 119.757 143.855 119.613 143.941C119.599 143.948 119.591 143.955 119.577 143.963C119.137 144.245 118.696 144.512 118.256 144.779C117.086 145.487 115.895 146.165 114.682 146.808C114.429 146.945 114.176 147.082 113.917 147.212C113.101 147.638 112.271 148.057 111.433 148.447C111.159 148.577 110.884 148.707 110.61 148.83C108.964 149.603 107.281 150.303 105.577 150.946C105.31 151.047 105.043 151.148 104.768 151.249C103.772 151.61 102.768 151.957 101.757 152.282C98.594 153.293 95.345 154.109 92.016 154.716C89.359 155.2 86.644 155.546 83.9 155.749C83.871 155.756 83.835 155.756 83.799 155.756C83.012 155.814 82.225 155.864 81.431 155.893C81.048 155.915 80.658 155.929 80.268 155.936C80.203 155.936 80.138 155.943 80.073 155.943C79.921 155.95 79.763 155.95 79.611 155.95C79.524 155.957 79.438 155.957 79.351 155.957C78.896 155.964 78.441 155.971 77.986 155.971C77.416 155.971 76.852 155.964 76.282 155.942H76.21C75.957 155.942 75.705 155.942 75.452 155.92C75.105 155.92 74.752 155.906 74.405 155.884C73.199 155.833 72 155.754 70.816 155.638C65.22 155.133 59.797 154.035 54.612 152.403C54.598 152.396 54.576 152.396 54.562 152.389C53.046 151.912 51.551 151.393 50.085 150.822C50.063 150.822 50.042 150.815 50.027 150.808C49.825 150.729 49.623 150.649 49.42 150.57C49.283 150.512 49.138 150.462 49.001 150.404C48.048 150.021 47.095 149.617 46.163 149.205C44.401 148.418 42.675 147.566 40.993 146.656C39.209 145.695 37.469 144.663 35.779 143.573C33.902 142.36 32.075 141.074 30.313 139.703C29.649 139.197 28.992 138.67 28.349 138.136C27.865 137.739 27.381 137.334 26.912 136.923C26.84 136.858 26.768 136.8 26.703 136.735C26.522 136.576 26.342 136.424 26.161 136.258C25.684 135.839 25.215 135.413 24.753 134.98C24.739 134.966 24.724 134.951 24.71 134.937C9.50302 120.705 0 100.457 0 77.986C0 34.913 34.913 0 77.986 0C121.059 0 155.97 34.912 155.97 77.985Z" fill="#F7F2DA"/>
<path d="M104.767 151.248C103.771 151.609 102.767 151.956 101.756 152.281C101.864 149.176 102.095 146.085 102.384 143.06C102.637 140.446 103.373 137.854 103.424 135.218L106.024 128.683C109.757 130.185 112.552 131.896 114.667 133.723V133.73C118.155 136.741 119.787 140.063 120.667 143.262C120.631 143.284 120.602 143.305 120.566 143.327C120.393 143.443 120.219 143.558 120.039 143.666C119.902 143.76 119.757 143.854 119.613 143.94C119.599 143.947 119.591 143.954 119.577 143.962C119.137 144.244 118.696 144.511 118.256 144.778C117.086 145.486 115.895 146.164 114.682 146.807C114.429 146.944 114.176 147.081 113.917 147.211C113.101 147.637 112.271 148.056 111.433 148.446C111.159 148.576 110.884 148.706 110.61 148.829C108.964 149.602 107.281 150.302 105.577 150.945C105.308 151.046 105.041 151.147 104.767 151.248Z" fill="#0C83C4"/>
<path d="M35.778 143.572C33.901 142.359 32.074 141.073 30.312 139.702C29.648 139.196 28.991 138.669 28.348 138.135C28.001 132.662 29.98 125.513 43.96 121.787C44.162 121.729 44.408 121.671 44.689 121.592C47.122 120.957 52.242 119.628 57.665 118.126C57.939 118.054 58.214 117.974 58.481 117.895C58.719 117.83 58.95 117.765 59.189 117.707C61.543 117.043 63.919 116.357 66.114 115.692C66.547 115.562 66.981 115.432 67.399 115.309C70.035 114.486 72.345 113.713 73.977 113.056C75.277 112.536 76.143 112.088 76.389 111.756C76.389 111.756 79.306 113.171 83.538 115.294C83.589 115.323 83.639 115.352 83.697 115.381C83.921 115.489 84.152 115.605 84.383 115.728C84.766 115.916 85.148 116.111 85.546 116.313C86.853 116.97 88.247 117.685 89.683 118.429C100.449 123.975 113.945 131.34 114.667 133.723V133.73C115.274 135.795 112.645 143.204 110.609 148.829C108.963 149.602 107.28 150.302 105.576 150.945C105.309 151.046 105.042 151.147 104.767 151.248C103.771 151.609 102.767 151.956 101.756 152.281C98.593 153.292 95.344 154.108 92.015 154.715C89.358 155.199 86.643 155.545 83.899 155.748C83.87 155.755 83.834 155.755 83.798 155.755C83.011 155.813 82.224 155.863 81.43 155.892C81.047 155.914 80.657 155.928 80.267 155.935C80.202 155.935 80.137 155.942 80.072 155.942C79.92 155.949 79.762 155.949 79.61 155.949C79.523 155.956 79.437 155.956 79.35 155.956C78.895 155.963 78.44 155.97 77.985 155.97C77.415 155.97 76.851 155.963 76.281 155.941H76.209C75.956 155.941 75.704 155.941 75.451 155.919C75.104 155.919 74.751 155.905 74.404 155.883C73.198 155.832 71.999 155.753 70.815 155.637C65.219 155.132 59.796 154.034 54.611 152.402C54.597 152.395 54.575 152.395 54.561 152.388C53.045 151.911 51.55 151.392 50.084 150.821C50.062 150.821 50.041 150.814 50.026 150.807C49.824 150.728 49.622 150.648 49.419 150.569C49.282 150.511 49.137 150.461 49 150.403C48.047 150.02 47.094 149.616 46.162 149.204C44.4 148.417 42.674 147.565 40.992 146.655C39.208 145.695 37.468 144.663 35.778 143.572Z" fill="#1B96EA"/>
<path d="M50.0829 150.822C50.0609 150.822 50.04 150.815 50.025 150.808C49.823 150.729 49.621 150.649 49.418 150.57C49.281 150.512 49.136 150.462 48.999 150.404C48.046 150.021 47.0929 149.617 46.1609 149.205C44.3989 148.418 42.673 147.566 40.991 146.656C39.207 145.695 37.467 144.663 35.777 143.573C33.9 142.36 32.073 141.074 30.311 139.703C29.647 139.197 28.9899 138.67 28.3469 138.136C27.8629 137.739 27.379 137.334 26.91 136.923C26.838 136.858 26.7659 136.8 26.7009 136.735C26.5199 136.576 26.3399 136.424 26.1589 136.258C25.6819 135.839 25.213 135.413 24.751 134.98C26.426 129.889 30.7519 124.502 44.6879 121.592C44.7239 121.585 44.7529 121.578 44.7889 121.57L46.5729 129.845C46.7679 132.495 47.9739 135.131 48.4719 137.759C49.2449 141.925 49.8799 146.2 50.0679 150.446C50.0749 150.569 50.0749 150.692 50.0829 150.822Z" fill="#1B96EA"/>
<path d="M50.0829 150.822C50.0609 150.822 50.0399 150.815 50.0249 150.808C50.0389 150.671 50.0539 150.548 50.0679 150.447C50.0749 150.569 50.0749 150.692 50.0829 150.822Z" fill="#0C83C4"/>
<path d="M81.4288 155.891C81.0458 155.913 80.6557 155.927 80.2657 155.934C80.2007 155.934 80.1357 155.941 80.0707 155.941C80.0777 155.616 80.0707 155.298 80.0707 154.973C80.0567 150.077 79.9917 145.167 79.7887 140.271C79.7667 139.686 79.7377 139.094 79.7167 138.502C79.7027 138.105 79.6807 137.715 79.6587 137.325C79.5507 135.043 79.3698 132.747 78.9078 130.537C78.7268 129.685 80.0348 129.324 80.2148 130.176C80.6408 132.227 80.8218 134.335 80.9438 136.429C80.9868 137.115 81.0228 137.794 81.0588 138.472V138.537C81.2828 142.761 81.3548 146.993 81.3978 151.224C81.4138 152.779 81.4288 154.331 81.4288 155.891Z" fill="#0C83C4"/>
<path d="M73.334 147.285C73.334 148.49 74.311 149.467 75.516 149.467C76.721 149.467 77.698 148.49 77.698 147.285C77.698 146.08 76.721 145.103 75.516 145.103C74.311 145.103 73.334 146.08 73.334 147.285Z" fill="#0C83C4"/>
<path d="M43.8978 52.5331C44.4178 50.8541 50.6958 45.7041 52.0578 44.6541L63.5528 45.084C60.6188 49.564 60.6638 54.4001 60.3698 59.5851C56.1198 58.2691 51.5468 58.117 47.3378 56.7C44.9978 55.912 43.0448 55.2911 43.8978 52.5331Z" fill="#B50F0F"/>
<path d="M65.0757 129.361C65.0757 129.361 65.8957 133.841 66.7797 136.147C67.9307 139.161 69.5737 141.742 71.4417 143.677C71.8787 143.279 72.3277 142.908 72.7797 142.562C76.0887 140.022 79.6017 138.772 80.0827 138.239C80.4897 138.72 83.1807 138.444 86.0357 139.639C86.1727 138.625 86.2157 137.549 86.1607 136.429C86.1267 135.726 86.0557 135.004 85.9427 134.273C85.9207 134.125 85.8977 133.979 85.8707 133.83C85.8417 133.661 85.8097 133.49 85.7757 133.322C85.7467 133.165 85.7127 133.005 85.6797 132.848C85.5897 132.432 85.4867 132.014 85.3697 131.594C85.3407 131.482 85.3067 131.367 85.2737 131.252C85.2667 131.23 85.2627 131.207 85.2537 131.185C85.2177 131.061 85.1797 130.935 85.1387 130.809C85.0827 130.618 85.0197 130.427 84.9547 130.236C84.8517 129.935 84.7437 129.632 84.6267 129.328C84.6077 129.285 84.5927 129.245 84.5787 129.202C84.4757 128.932 84.3677 128.667 84.2527 128.404C84.1987 128.274 84.1397 128.146 84.0817 128.015C84.0297 127.898 83.9757 127.783 83.9217 127.666C83.9147 127.65 83.9087 127.632 83.8997 127.617C83.8567 127.525 83.8137 127.437 83.7697 127.347C83.5717 126.938 83.3627 126.538 83.1467 126.149C83.1087 126.077 83.0687 126.005 83.0277 125.935C82.9877 125.865 82.9487 125.796 82.9087 125.728L83.8997 112.704C83.9057 112.616 83.9107 112.533 83.9177 112.452L85.3927 93.0548L86.4827 78.7158L69.0237 77.3918L68.6647 82.1508L67.5067 97.3598V97.3618L66.4417 111.379L66.0907 115.987L65.0757 129.361Z" fill="#F79C5E"/>
<path d="M84.6279 129.331C85.5519 131.753 86.0539 134.179 86.1619 136.432C85.8419 134.963 85.414 133.521 84.897 132.216C84.116 130.258 82.6699 128.843 81.8209 127.068C80.9629 125.265 81.8289 123.203 81.2059 121.145C80.0499 117.334 74.4869 114.49 72.2009 110.917C69.5679 106.799 68.423 102.622 67.575 97.7918C67.55 97.6488 67.5259 97.5058 67.5059 97.3648C66.6869 91.9268 68.4499 87.2198 68.3259 81.9348L68.663 82.1548L85.3909 93.0588L82.906 125.732C83.555 126.842 84.1379 128.045 84.6279 129.331Z" fill="#E07832"/>
<path d="M65.0757 129.361C65.0757 129.361 65.8957 133.841 66.7797 136.147C67.9307 139.161 69.5737 141.742 71.4417 143.677C71.8787 143.279 72.3277 142.908 72.7797 142.562C71.5977 140.708 70.6717 138.604 69.9137 136.87C67.7557 131.936 67.1397 126.431 66.5737 121.157C66.3897 119.449 66.2207 117.722 66.0907 115.989L65.0757 129.361Z" fill="#EF9C62"/>
<path d="M53.7189 67.7438C54.5159 66.6688 55.9919 66.8568 57.2139 66.7818C58.5169 66.7018 60.4419 66.5868 61.2599 68.5498C61.9039 70.0918 62.1469 72.2268 62.5859 73.8868L64.7239 84.3898C64.2839 84.8748 62.5909 85.3438 61.9039 84.9898C61.0019 84.5238 55.8089 75.7118 54.2309 72.0258C53.5029 70.3198 52.7109 69.1028 53.7189 67.7438Z" fill="#F79C5E"/>
<path d="M54.4971 69.0027C54.4911 67.9587 55.7711 68.0107 56.6291 67.8837C57.4751 67.7597 58.9191 67.3867 59.7201 67.8907C60.5081 68.3877 60.7641 70.4457 60.9541 71.4197C58.6931 71.3977 59.5721 74.6517 61.3371 73.9927L61.4951 74.5907C61.7061 75.3897 61.8981 76.3847 61.8061 76.9757C61.6411 76.3527 61.5321 75.0657 60.9971 74.6937C60.4761 74.3307 59.5991 74.6917 59.0141 74.3667C57.4851 73.5187 58.7111 71.7987 59.8301 71.1737C59.6741 70.7457 59.4811 69.6397 59.1551 69.3377C58.7811 68.9917 57.8001 69.1227 57.2691 69.0977C56.4751 69.0617 55.9091 68.8657 55.7001 69.5957C55.5601 70.0867 55.9101 70.8197 56.0471 71.3017C55.5411 70.8147 54.5011 69.7167 54.4971 69.0027Z" fill="#E07832"/>
<path d="M58.4669 77.5708C58.9819 89.1408 68.665 100.031 68.466 100.479C64.938 108.422 72.876 110.905 75.794 111.27C80.591 111.868 95.2489 110.788 97.1099 89.9878C97.4269 86.4358 95.895 80.4938 95.677 76.0868C95.668 75.8768 95.66 75.6638 95.66 75.4408C95.646 73.0158 96.125 69.9498 96.246 67.0048C96.299 65.6888 96.28 64.3938 96.113 63.1928C95.907 61.7238 96.372 55.5798 95.167 49.1198C93.766 41.5978 90.107 33.6488 80.504 32.1528C70.456 30.5898 64.595 37.6588 61.57 45.2598C59.109 51.4308 58.521 57.9558 59.082 60.4818C59.121 60.6538 59.164 60.8088 59.212 60.9418C63.912 73.8538 58.0529 68.2798 58.4669 77.5708Z" fill="#F79C5E"/>
<path d="M68.5569 67.7369C68.2509 67.4819 64.6479 68.0579 63.3199 68.4739C62.9289 68.5959 62.4759 68.6399 62.2939 69.1489C62.1139 69.6539 61.9109 70.6429 61.8529 71.1599C61.8289 71.3769 61.9038 72.0399 61.9038 72.0399C63.4778 71.5009 65.7549 70.5939 67.4629 71.0249C68.2069 71.2129 69.5829 73.2399 69.7019 73.2679C69.6749 73.0939 68.8689 67.9969 68.5569 67.7369Z" fill="#E07832"/>
<path d="M62.4829 73.6208C62.4829 73.6208 63.2768 75.2198 65.9348 75.0678C68.5928 74.9148 69.1958 73.2358 69.1958 73.2358C69.1958 73.2358 69.4818 73.3928 69.5448 73.2748C69.6088 73.1568 69.2398 72.9068 69.1828 72.5478C69.1248 72.1888 68.3748 69.3878 67.6848 69.1588C66.9948 68.9298 62.7809 69.1778 62.2119 70.4358C61.6429 71.6928 62.4829 73.6208 62.4829 73.6208Z" fill="white"/>
<path d="M67.8242 71.5787C67.9032 72.9557 67.1042 74.1197 66.0402 74.1817C64.9752 74.2427 64.0492 73.1767 63.9702 71.7997C63.8912 70.4227 64.6902 69.2578 65.7542 69.1968C66.8182 69.1368 67.7452 70.2017 67.8242 71.5787Z" fill="#3A2E26"/>
<path d="M66.3813 71.3227C66.4133 71.8977 66.0803 72.3847 65.6353 72.4097C65.1903 72.4347 64.8033 71.9897 64.7703 71.4147C64.7373 70.8397 65.0703 70.3527 65.5153 70.3277C65.9613 70.3017 66.3483 70.7477 66.3813 71.3227Z" fill="#4C3F35"/>
<path d="M66.2552 71.3297C66.2662 71.5247 66.1532 71.6887 66.0032 71.6977C65.8522 71.7057 65.7222 71.5557 65.7112 71.3607C65.7002 71.1667 65.8132 71.0017 65.9632 70.9937C66.1132 70.9857 66.2442 71.1357 66.2552 71.3297Z" fill="white"/>
<path d="M69.6802 73.1398C69.6802 73.1258 69.6732 73.1178 69.6652 73.1108C69.6652 73.1038 69.6652 73.1038 69.6652 73.1038C69.6362 73.0318 69.5862 72.9598 69.5352 72.9018C69.4562 72.7868 69.3472 72.6568 69.3262 72.5188C69.3192 72.4468 69.2612 72.1938 69.1602 71.8468C68.8932 70.8648 68.3292 69.1748 67.7162 68.9728C67.6512 68.9508 67.5722 68.9368 67.4632 68.9218C67.3982 68.9078 67.3192 68.8998 67.2392 68.8998C67.2392 68.8998 67.2392 68.8998 67.2322 68.8998C66.9502 68.8778 66.5892 68.8858 66.1852 68.9068C65.5932 68.9428 62.6112 69.1738 62.0832 70.3368C62.0402 70.4238 62.0112 70.5178 61.9822 70.6108C61.9602 70.6828 61.9392 70.7548 61.9242 70.8278V70.8498C61.9172 70.8638 61.9172 70.8788 61.9172 70.8928C61.8952 70.9868 61.8882 71.0808 61.8812 71.1818C61.8662 71.2758 61.8662 71.3768 61.8662 71.4708C61.8662 71.5788 61.8732 71.6798 61.8812 71.7888C61.8812 71.8318 61.8812 71.8678 61.8882 71.9118V71.9188C61.8882 71.9328 61.8882 71.9408 61.8952 71.9548V71.9908C61.9022 72.0048 61.9022 72.0268 61.9022 72.0418C61.9242 72.2368 61.9602 72.4168 62.0032 72.5908C62.0462 72.7928 62.0972 72.9808 62.1472 73.1468C62.2482 73.4718 62.3422 73.6958 62.3562 73.7168C62.3702 73.7388 62.4502 73.8978 62.6302 74.1068C63.0562 74.5978 64.0382 75.3708 65.9442 75.2618C68.2262 75.1248 69.0422 73.8968 69.2662 73.4638C69.3242 73.4928 69.4032 73.5148 69.4752 73.5068C69.5832 73.4998 69.6412 73.4348 69.6632 73.3838C69.6782 73.3548 69.6922 73.3258 69.6922 73.2968C69.6922 73.2898 69.6922 73.2898 69.6922 73.2898C69.6992 73.2828 69.6992 73.2758 69.6992 73.2678C69.6992 73.2598 69.6992 73.2608 69.6992 73.2608C69.7022 73.2188 69.6952 73.1828 69.6802 73.1398ZM69.0592 73.1468C69.0522 73.1608 68.4452 74.7278 65.9252 74.8798C63.3982 75.0238 62.6182 73.5368 62.6112 73.5298C62.6042 73.5228 62.4522 73.1618 62.3292 72.6708C62.2712 72.4468 62.2212 72.2018 62.1922 71.9418C62.1342 71.4648 62.1492 70.9528 62.3442 70.5338C62.4382 70.3178 62.6832 70.1298 63.0152 69.9708L63.0222 69.9638C63.5712 69.7038 64.3432 69.5088 65.1592 69.4008H65.1662C65.5202 69.3508 65.8672 69.3138 66.2062 69.2928C66.9712 69.2498 67.4842 69.2858 67.6502 69.3438C68.0042 69.4668 68.4522 70.5788 68.7402 71.4888C68.8632 71.8718 68.9572 72.2258 69.0072 72.4418C69.0222 72.4998 69.0362 72.5498 69.0362 72.5868C69.0652 72.7818 69.1592 72.9338 69.2452 73.0638L69.1222 72.9918L69.0592 73.1468Z" fill="#E89258"/>
<path opacity="0.1" d="M69.1631 71.8448C69.0421 71.7288 68.9011 71.6058 68.7411 71.4828C68.0161 70.9218 66.8841 70.3438 65.3661 70.4308C63.5831 70.5328 62.7231 71.7598 62.3271 72.6668C62.2521 72.8418 62.1931 73.0028 62.1491 73.1438C61.9291 72.4428 61.6711 71.2458 62.0831 70.3358C62.6101 69.1728 65.5921 68.9438 66.1851 68.9098C66.8911 68.8688 67.4781 68.8928 67.7181 68.9738C68.3271 69.1748 68.8921 70.8678 69.1631 71.8448Z" fill="black"/>
<path d="M82.3947 67.6128C82.7147 67.3228 86.9227 67.4498 88.4997 67.6988C88.9637 67.7718 89.4897 67.7598 89.7607 68.2428C90.0297 68.7218 90.3847 69.6798 90.5147 70.1848C90.5697 70.3958 90.5657 71.0638 90.5657 71.0638C88.6917 70.7238 85.9647 70.1038 84.0577 70.7428C83.2247 71.0218 81.8957 73.2028 81.7617 73.2458C81.7717 73.0698 82.0687 67.9088 82.3947 67.6128Z" fill="#E07832"/>
<path d="M90.0945 72.7059C90.0945 72.7059 89.3795 74.3919 86.3095 74.5689C83.2375 74.7449 82.3385 73.1519 82.3385 73.1519C82.3385 73.1519 82.0295 73.3429 81.9425 73.2339C81.8545 73.1259 82.2475 72.8309 82.2685 72.4679C82.2905 72.1039 82.8065 69.2319 83.5705 68.9179C84.3345 68.6059 89.2035 68.3319 90.0125 69.5109C90.8205 70.6899 90.0945 72.7059 90.0945 72.7059Z" fill="white"/>
<path d="M84.034 71.1448C84.113 72.5208 85.174 73.5808 86.404 73.5098C87.634 73.4388 88.566 72.2658 88.487 70.8898C88.408 69.5138 87.347 68.4539 86.117 68.5249C84.888 68.5959 83.955 69.7688 84.034 71.1448Z" fill="#3A2E26"/>
<path d="M84.2568 70.9829C84.2898 71.5579 84.7328 72.0009 85.2468 71.9709C85.7608 71.9419 86.1508 71.4509 86.1168 70.8759C86.0838 70.3009 85.6408 69.8579 85.1278 69.8879C84.6128 69.9179 84.2238 70.4079 84.2568 70.9829Z" fill="#4C3F35"/>
<path d="M85.804 70.704C85.814 70.898 85.965 71.048 86.138 71.038C86.312 71.028 86.444 70.862 86.432 70.668C86.421 70.474 86.272 70.324 86.098 70.334C85.925 70.344 85.792 70.51 85.804 70.704Z" fill="white"/>
<path d="M90.5557 70.7058C90.5627 70.6918 90.5627 70.6698 90.5557 70.6548C90.5557 70.6328 90.5557 70.6048 90.5487 70.5828V70.5538C90.5417 70.4818 90.5267 70.4018 90.5127 70.3298C90.5057 70.2648 90.4987 70.2068 90.4767 70.1488C90.4697 70.0978 90.4547 70.0548 90.4407 70.0048C90.4267 69.9618 90.4117 69.9178 90.3977 69.8748C90.3397 69.7088 90.2537 69.5428 90.1517 69.3908C89.4007 68.3078 85.9497 68.4448 85.2637 68.4878C85.1767 68.4948 85.0977 68.4948 85.0177 68.5018C84.9457 68.5088 84.8657 68.5088 84.7937 68.5158H84.7867C84.7647 68.5158 84.7507 68.5228 84.7287 68.5228C84.7147 68.5228 84.6997 68.5228 84.6857 68.5298C84.6637 68.5298 84.6427 68.5298 84.6207 68.5368C84.5337 68.5438 84.4477 68.5508 84.3677 68.5658H84.3607C84.3607 68.5658 84.3537 68.5658 84.3457 68.5658C84.2517 68.5728 84.1577 68.5878 84.0787 68.6018C83.9917 68.6158 83.9127 68.6308 83.8407 68.6448C83.7037 68.6738 83.5877 68.7028 83.5087 68.7318C82.8367 69.0058 82.3967 70.7608 82.2087 71.7648C82.1367 72.1188 82.1007 72.3788 82.1007 72.4508C82.0937 72.5878 81.9847 72.7398 81.9057 72.8548C81.8547 72.9198 81.8047 73.0068 81.7757 73.0858C81.7687 73.0928 81.7687 73.0928 81.7687 73.0998C81.7617 73.1358 81.7617 73.1648 81.7617 73.2008V73.2438C81.7687 73.2798 81.7907 73.3228 81.8197 73.3598C81.8557 73.4028 81.9277 73.4608 82.0507 73.4538C82.1297 73.4538 82.2167 73.4178 82.2887 73.3888C82.5917 73.7928 83.6827 74.9048 86.3177 74.7538C89.4587 74.5808 90.2237 72.8618 90.2527 72.7898C90.2597 72.7538 90.3397 72.5298 90.4187 72.1908C90.4407 72.1038 90.4547 72.0178 90.4767 71.9238C90.5057 71.7508 90.5347 71.5698 90.5487 71.3748C90.5557 71.2738 90.5637 71.1728 90.5637 71.0648C90.5637 71.0648 90.5637 71.0358 90.5637 70.9928V70.7838C90.5627 70.7638 90.5627 70.7348 90.5557 70.7058ZM90.1587 71.7388C90.0717 72.2518 89.9417 72.6268 89.9347 72.6348C89.9347 72.6418 89.2127 74.2088 86.2957 74.3818C83.3857 74.5478 82.4907 73.0678 82.4827 73.0528L82.3957 72.8938L82.2507 72.9808C82.3447 72.8438 82.4317 72.6778 82.4387 72.4828C82.4387 72.4468 82.4457 72.3958 82.4527 72.3388C82.4817 72.1368 82.5397 71.8118 82.6187 71.4508C82.6187 71.4438 82.6257 71.4288 82.6257 71.4218C82.6327 71.3998 82.6327 71.3788 82.6397 71.3568C82.8637 70.4248 83.2387 69.2628 83.6287 69.0968C83.8167 69.0178 84.4017 68.9158 85.2827 68.8658C85.4777 68.8588 85.6797 68.8518 85.8747 68.8438C85.8817 68.8438 85.8817 68.8438 85.8887 68.8438C87.6217 68.8078 89.4627 69.0248 89.8747 69.6238C90.1417 70.0208 90.2287 70.5188 90.2217 71.0028C90.2237 71.2618 90.1947 71.5148 90.1587 71.7388Z" fill="#E89258"/>
<path opacity="0.1" d="M82.2046 71.7669C82.3296 71.6359 82.4756 71.4979 82.6446 71.3559C83.4076 70.7089 84.6356 69.9959 86.3906 69.8949C88.4506 69.7769 89.5886 70.8879 90.1566 71.7399C90.2636 71.9049 90.3516 72.0579 90.4186 72.1919C90.5846 71.4679 90.7336 70.2489 90.1486 69.3949C89.3996 68.3059 85.9476 68.4459 85.2626 68.4859C84.4466 68.5319 83.7756 68.6279 83.5106 68.7369C82.8366 69.0129 82.3956 70.7639 82.2046 71.7669Z" fill="black"/>
<path d="M67.1187 61.9348C65.6017 60.7808 61.7387 60.4778 60.5767 60.4128C60.3627 60.4018 60.2407 60.3968 60.2407 60.3968C60.4127 60.0838 60.7187 58.7988 61.0417 58.3908C61.3967 57.9438 62.1227 57.7538 62.5937 57.5898C63.9227 57.1178 65.4237 56.7678 66.7477 56.5598C67.0207 57.5848 67.0387 58.7198 67.0487 59.8418C67.0547 60.5558 67.0567 61.2648 67.1187 61.9348Z" fill="#604135"/>
<path d="M82.2998 64.6108C84.5188 63.5088 89.9368 63.3408 91.5638 63.3168C91.8638 63.3138 92.0338 63.3118 92.0338 63.3118C91.8228 62.9928 91.5088 61.6968 91.0948 61.2788C90.6398 60.8178 89.6429 60.6028 89.0009 60.4218C87.1869 59.9028 85.1248 59.5008 83.2948 59.2458C82.8238 60.2618 82.6978 61.3968 82.5838 62.5188C82.5128 63.2338 82.4458 63.9428 82.2998 64.6108Z" fill="#604135"/>
<path d="M85.6002 91.5549C85.3952 90.8049 85.2801 89.9429 85.2011 89.1409C86.4371 89.8689 87.7031 92.3729 87.7161 94.1239C87.2061 93.5989 86.6581 93.1199 86.0581 92.7969C83.2591 97.0119 78.9241 99.3629 73.3021 97.9219C72.7441 96.1809 71.5232 94.3429 70.5562 92.9629C80.3192 97.9439 85.6002 91.5549 85.6002 91.5549Z" fill="#60120F"/>
<path d="M70.959 93.1189C71.199 93.3749 71.429 93.6319 71.645 93.8949C71.674 93.9259 71.701 93.9599 71.728 93.9939C72.164 94.5249 72.567 95.0799 72.949 95.6869C73.138 95.9909 73.306 96.2899 73.481 96.5789C73.499 96.6129 73.499 96.6759 73.539 96.6799C80.721 97.5699 83.704 94.2909 84.066 93.3509C84.066 93.2949 84.052 93.2519 84.03 93.2229C83.782 92.8969 82.317 94.0909 82.31 93.4609C81.1 94.0249 79.543 94.4769 77.659 94.4699C77.517 94.4699 77.374 94.4659 77.23 94.4609C76.106 94.4159 74.948 94.2139 73.768 93.8559C73.138 93.7389 72.498 93.5859 71.853 93.3979C71.556 93.3129 71.258 93.2209 70.959 93.1189Z" fill="#EFEAE8"/>
<path d="M71.853 93.3988C71.876 93.4208 71.893 93.4458 71.914 93.4708C72.35 94.0008 72.752 94.5568 73.135 95.1638C73.324 95.4668 73.492 95.7658 73.668 96.0558C73.686 96.0898 73.686 96.1498 73.726 96.1568C80.103 96.9458 83.169 94.4508 84.03 93.2228C83.782 92.8968 82.317 94.0908 82.31 93.4608C81.1 94.0248 79.543 94.4768 77.659 94.4698C77.517 94.4698 77.374 94.4658 77.23 94.4608C76.106 94.4158 74.948 94.2138 73.768 93.8558C73.139 93.7398 72.498 93.5868 71.853 93.3988Z" fill="white"/>
<path d="M85.906 91.4298C85.798 91.0258 85.704 90.5638 85.624 89.9998L85.53 91.2488C85.552 91.3498 85.573 91.4508 85.602 91.5518C85.602 91.5518 85.566 91.5948 85.501 91.6678L85.458 92.2238C85.682 92.0068 85.805 91.8558 85.826 91.8268L85.97 91.6608L85.906 91.4298ZM88.036 94.1158C88.022 92.3898 86.917 90.0428 85.696 89.0398C85.581 88.9388 85.458 88.8598 85.342 88.7868L84.815 88.4758L84.88 89.1838C84.974 90.1008 85.082 90.8228 85.234 91.4298C85.053 91.6178 84.721 91.9348 84.238 92.3038C84.021 92.4628 83.783 92.6358 83.516 92.8018C83.292 92.9458 83.047 93.0908 82.779 93.2348H82.772C82.628 93.3138 82.469 93.3868 82.31 93.4588C82.166 93.5308 82.014 93.6028 81.848 93.6608C81.798 93.6828 81.754 93.7038 81.704 93.7188C81.632 93.7478 81.552 93.7838 81.473 93.8128C81.437 93.8268 81.408 93.8348 81.379 93.8418C81.372 93.8488 81.357 93.8488 81.35 93.8488C81.328 93.8628 81.307 93.8708 81.278 93.8778C81.213 93.8998 81.148 93.9208 81.083 93.9428C80.996 93.9718 80.91 94.0008 80.816 94.0218C80.628 94.0798 80.433 94.1298 80.231 94.1808C80.051 94.2238 79.856 94.2678 79.661 94.2968C79.646 94.3038 79.625 94.3108 79.603 94.3108C79.451 94.3328 79.3 94.3618 79.141 94.3758C79.098 94.3828 79.054 94.3908 79.011 94.3908C78.968 94.3978 78.917 94.4048 78.867 94.4128C78.853 94.4128 78.838 94.4128 78.817 94.4198C78.73 94.4268 78.637 94.4338 78.535 94.4418C78.492 94.4418 78.441 94.4488 78.391 94.4488C78.29 94.4558 78.189 94.4628 78.081 94.4628C77.973 94.4698 77.85 94.4698 77.727 94.4698H77.662C77.518 94.4698 77.373 94.4628 77.236 94.4628C76.991 94.4488 76.738 94.4338 76.485 94.4048C76.254 94.3828 76.03 94.3538 75.799 94.3178C75.777 94.3178 75.749 94.3178 75.727 94.3108H75.72C75.077 94.2028 74.427 94.0578 73.77 93.8558C73.683 93.8268 73.597 93.7978 73.503 93.7688C72.94 93.5958 72.362 93.3718 71.784 93.1188C71.423 92.9668 71.047 92.7868 70.679 92.5988L69.437 91.9638L70.311 93.2128C71.351 94.6928 72.477 96.4338 73.004 98.0658L73.069 98.2608L73.235 98.3038C74.347 98.5858 75.437 98.7298 76.484 98.7368C78.347 98.7438 80.087 98.3108 81.669 97.4518C82.507 96.9968 83.301 96.4268 84.045 95.7328C84.478 95.3358 84.897 94.8948 85.294 94.4118C85.59 94.0578 85.879 93.6828 86.146 93.2778C86.579 93.5448 87.02 93.9128 87.511 94.4258L88.045 94.9748L88.036 94.1158ZM86.187 92.4338L85.963 92.3178L85.804 92.5488C85.667 92.7578 85.53 92.9608 85.385 93.1558C84.916 93.7988 84.417 94.3758 83.883 94.8888C83.659 95.1128 83.421 95.3218 83.183 95.5238C81.248 97.1338 78.98 97.9648 76.482 97.9578C75.796 97.9508 75.081 97.8858 74.359 97.7558C74.085 97.7058 73.81 97.6478 73.536 97.5828C73.103 96.3258 72.366 95.0558 71.594 93.8708C71.608 93.8778 71.623 93.8848 71.644 93.8928C71.933 94.0228 72.222 94.1388 72.503 94.2468H72.51C72.524 94.2538 72.539 94.2538 72.553 94.2608C74.3 94.9178 76.012 95.2498 77.658 95.2498C79.839 95.2568 81.593 94.6938 82.908 94.0218C82.923 94.0218 82.937 94.0078 82.951 93.9998C83.204 93.8768 83.442 93.7398 83.659 93.6098C83.695 93.5878 83.731 93.5668 83.767 93.5448C83.774 93.5378 83.782 93.5378 83.789 93.5308C83.883 93.4658 83.977 93.4078 84.063 93.3498C84.381 93.1328 84.655 92.9238 84.893 92.7288C85.124 92.5408 85.312 92.3678 85.456 92.2238C85.68 92.0068 85.803 91.8558 85.824 91.8268L85.968 91.6608L85.903 91.4298C85.795 91.0258 85.701 90.5638 85.621 89.9998V89.9928C85.621 89.9858 85.621 89.9638 85.614 89.9498C85.621 89.9568 85.621 89.9568 85.628 89.9638C86.35 90.7218 87.022 92.0438 87.274 93.2128C86.902 92.8888 86.548 92.6358 86.187 92.4338Z" fill="#E07832"/>
<path d="M78.738 102.114C78.738 102.114 76.723 105.379 76.475 106.682C75.152 105.572 72.985 103.211 72.853 101.457C74.406 102.587 75.79 103.499 78.738 102.114Z" fill="#E07832"/>
<path d="M105.034 65.937C104.058 64.947 102.485 65.282 101.16 65.329C99.7457 65.38 97.6566 65.456 96.9866 67.491C96.4606 69.089 96.4297 71.238 96.1367 72.934L94.9727 83.597C95.5007 84.036 97.3776 84.334 98.0786 83.912C98.9996 83.358 103.644 74.072 104.944 70.247C105.547 68.479 106.269 67.188 105.034 65.937Z" fill="#F79C5E"/>
<path d="M104.332 67.267C104.225 66.228 102.85 66.407 101.91 66.366C100.984 66.327 99.3867 66.1 98.5777 66.681C97.7817 67.254 97.7297 69.327 97.6307 70.316C100.066 70.069 99.4727 73.394 97.4977 72.914L97.3918 73.525C97.2508 74.341 97.1527 75.35 97.3157 75.929C97.4267 75.292 97.4027 74.001 97.9407 73.578C98.4637 73.164 99.4487 73.436 100.044 73.055C101.601 72.058 100.091 70.47 98.8168 69.96C98.9388 69.518 99.0268 68.398 99.3458 68.066C99.7118 67.684 100.784 67.717 101.354 67.639C102.207 67.523 102.795 67.273 103.1 67.978C103.305 68.453 103.006 69.217 102.911 69.71C103.403 69.174 104.406 67.978 104.332 67.267Z" fill="#E07832"/>
<path d="M72.5021 85.655L72.2671 85.643C72.3511 85.635 72.4281 85.641 72.5021 85.655Z" fill="#E89258"/>
<path d="M72.502 85.655L73.7659 85.718C75.4139 88.19 75.027 91.794 75.78 94.549C75.076 94.839 74.114 94.254 73.345 94.266C73.935 93.288 73.786 85.916 72.502 85.655Z" fill="#E07832"/>
<path d="M68.5567 67.7368C68.5567 67.7368 73.5408 73.5788 71.5478 83.9288C75.0218 84.2208 80.8798 85.3398 80.3138 81.8248C83.2628 85.8498 74.1367 87.6078 68.8747 85.5268C71.6757 72.0448 67.8407 69.1978 68.5567 67.7368Z" fill="#E07832"/>
<path d="M62.0428 47.1719C63.9078 48.3479 67.1807 49.9679 69.1617 49.6019C72.7717 48.9369 78.4857 47.2799 83.7187 43.4589C96.5427 34.0939 87.7157 65.6879 95.6437 65.6879C96.3087 65.7399 94.9418 73.6699 95.6858 77.0709C96.5038 80.8219 97.1518 78.5629 97.1518 78.5629C97.1518 78.5629 97.5857 76.9399 98.2417 74.4179C100.341 66.3349 104.714 49.0119 104.336 46.3129C103.529 40.5899 95.6387 38.6909 91.1477 34.6869C85.3007 29.4739 75.9598 29.7729 69.1628 34.1929C67.2208 35.4559 61.7328 35.6489 58.6288 37.9219C57.6308 38.6519 56.8577 39.3649 56.4867 40.0189C55.3447 42.0379 59.5168 45.5789 62.0428 47.1719Z" fill="#604135"/>
<path d="M64.2411 37.9558C65.2621 36.9708 66.2261 36.0278 66.5721 35.2918C67.2081 33.9388 63.4021 38.2618 64.2411 37.9558Z" fill="#604135"/>
<path d="M58.4261 57.743C58.4621 62.513 60.471 71.266 60.459 71.891C61.422 69.987 60.6331 64.2989 60.8321 57.8979C60.9631 53.6699 61.524 49.13 63.305 45.164C63.404 44.944 63.5061 44.726 63.6131 44.508L64.399 37.877C64.336 37.916 64.283 37.942 64.242 37.956C62.906 39.234 61.4641 40.575 61.1421 41.586C60.8851 42.397 60.58 43.658 60.273 45.132C59.441 49.115 58.564 54.636 58.443 56.879C58.429 57.148 58.4231 57.438 58.4261 57.743Z" fill="#604135"/>
<path d="M62.0429 47.1719C63.9079 48.3479 67.1809 49.9679 69.1619 49.6019C72.7719 48.9369 78.4859 47.2799 83.7189 43.4589C96.5429 34.0939 87.7159 65.6879 95.6439 65.6879C96.3089 65.7399 94.9419 73.6699 95.6859 77.0709C96.5039 80.8219 97.152 78.5629 97.152 78.5629C97.152 78.5629 97.5859 76.9399 98.2419 74.4179C96.7129 71.5499 96.9699 64.0869 97.3409 62.4859C91.3859 63.6959 93.6029 42.6849 89.4549 39.8659C86.8519 38.0989 83.8779 41.2079 81.6259 42.3859C79.3579 43.5699 76.4719 44.8699 73.8729 44.2509C69.9839 43.3249 66.3579 40.9919 62.6379 39.5689C61.3159 39.0629 59.9699 38.5119 58.6279 37.9209C57.6299 38.6509 56.8569 39.3639 56.4859 40.0179C55.3449 42.0379 59.5169 45.5789 62.0429 47.1719Z" fill="#4F3229"/>
<path d="M95.029 84.3289C95.023 84.3459 95.015 84.3619 95 84.3769L95.029 84.3289Z" fill="#4F3229"/>
<path opacity="0.4" d="M58.426 57.7429C59.198 57.7889 60.004 57.8419 60.832 57.8979C65.299 58.2079 70.323 58.6679 73.47 59.1399C79.065 59.9819 84.493 61.3129 89.73 63.4739C91.821 64.3379 93.88 65.3009 95.947 66.2229C96.053 66.2689 96.157 66.3169 96.261 66.3639C96.285 65.2699 96.254 64.1979 96.114 63.1939C95.908 61.7249 96.373 55.5809 95.168 49.1209C95.074 49.0799 94.986 49.0389 94.907 49.0019C92.751 48.0069 90.691 47.6999 88.375 47.2689C83.469 46.3589 78.975 45.5509 74.002 45.3309C70.466 45.1739 66.865 45.0309 63.313 45.1639H63.306C63.033 45.1739 61.707 45.1519 60.274 45.1329C59.442 49.1159 58.565 54.6369 58.444 56.8799C58.429 57.1479 58.423 57.4379 58.426 57.7429Z" fill="#E89258"/>
<path d="M58.7557 117.096C60.3547 119.473 62.7038 121.686 64.6818 123.841C65.5728 124.812 70.5168 129.575 70.2568 130.278L75.5018 139.27C75.4148 139.263 75.4798 139.014 75.2338 139.14C73.7438 141.512 71.9548 143.799 70.5638 146.339C69.2078 148.815 68.7608 151.212 68.2778 153.907C65.0758 152.308 53.1737 132.077 58.7557 117.096Z" fill="#0C83C4"/>
<path d="M58.1117 130.447C60.0177 138.924 62.5807 142.932 67.2897 149.835C68.1147 147.299 69.6787 145.281 71.4417 143.678C71.8787 143.28 72.3277 142.909 72.7797 142.563C76.0887 140.023 79.6017 138.773 80.0827 138.24C80.2697 138.033 80.3727 137.921 80.3727 137.921C80.2807 137.865 80.1837 137.795 80.0827 137.712C76.4187 134.772 66.3527 115.741 66.4407 111.383C63.9617 113.408 57.6697 117.915 57.6697 117.915C57.6697 117.915 57.5097 127.761 58.1117 130.447Z" fill="#26ACF7"/>
<path d="M82.2148 138.682C82.2148 138.682 83.4418 129.545 83.5288 128.639C83.5288 128.637 83.5288 128.637 83.5288 128.635C84.0348 123.46 84.2168 118.023 84.4008 115.404C84.4068 115.316 84.4118 115.233 84.4188 115.152C86.8978 117.177 90.4838 124.256 90.4838 124.256C90.4838 124.256 94.0618 138.892 92.0248 147.593C88.5398 139.719 82.2148 138.682 82.2148 138.682Z" fill="#0C83C4"/>
<path d="M79.8105 137.921C79.8105 137.921 79.9065 138.033 80.0825 138.24C80.4895 138.721 83.1805 138.445 86.0355 139.64C88.0155 140.472 90.0725 142.01 91.4995 145.001C93.5905 136.313 89.6795 118.424 89.6795 118.424C89.6795 118.424 86.3965 114.48 83.9175 112.454C83.9105 112.535 84.0685 112.072 83.8995 112.706C83.2225 115.243 83.5325 120.762 83.0275 125.937C83.0275 125.939 83.0275 125.939 83.0275 125.942C82.9395 126.848 82.8415 127.747 82.7285 128.619C82.1935 132.865 81.3775 136.529 80.0825 137.712C79.9945 137.795 79.9025 137.865 79.8105 137.921Z" fill="#26ACF7"/>
<path d="M52.1787 43.753C59.8867 44.6 71.4477 44.663 78.5457 47.988C82.9037 50.03 88.7877 53.47 93.1287 57.479C95.0237 59.231 96.6237 61.092 97.6757 62.992L101.064 64.928C108.714 55.577 108.68 42.269 101.645 34.408C95.6647 27.721 84.6197 24.975 68.9377 31.959C65.0397 33.695 53.8447 39.653 52.1787 43.753Z" fill="#F45347"/>
<path d="M93.1299 57.4789C95.0249 59.2309 96.6249 61.0919 97.6769 62.9919L101.065 64.9279C108.715 55.5769 108.681 42.269 101.646 34.408C102.033 37.719 101.97 41.446 101.186 44.483C100.46 47.29 99.4069 49.96 97.8029 52.339C96.4809 54.302 94.9399 56.0709 93.1299 57.4789Z" fill="#D31111"/>
<path d="M44.4019 51.2791C46.5439 49.4331 49.5778 47.3581 52.1628 46.5281C56.3058 45.1991 60.5338 47.6561 64.4448 49.1901C70.4268 51.5351 101.066 64.9281 101.066 64.9281C99.2528 62.9701 97.2178 60.971 95.1168 59.018C88.2438 52.634 80.6788 46.7801 77.9418 44.6531C70.5558 38.9121 65.3698 36.5601 60.2408 36.0081C56.2968 35.5851 51.2218 39.9091 48.9128 43.0261C47.9058 44.3861 47.2988 45.6951 46.7178 46.9951C46.0788 48.4211 45.4709 49.8321 44.4019 51.2791Z" fill="#D31111"/>
<path d="M46.7178 46.9961C48.6318 45.5511 50.8948 44.1691 52.8888 43.5301C57.0328 42.1991 61.2598 44.6581 65.1708 46.1921C69.3748 47.8401 85.7488 54.941 95.1168 59.018C88.2438 52.634 80.6788 46.7801 77.9418 44.6531C70.5558 38.9121 65.3698 36.5601 60.2408 36.0081C56.2968 35.5851 51.2218 39.9091 48.9128 43.0261C47.9058 44.3871 47.2978 45.6961 46.7178 46.9961Z" fill="#FF3939"/>
</svg>
