<svg width="156" height="156" viewBox="0 0 156 156" fill="none" xmlns="http://www.w3.org/2000/svg">
<path d="M143.923 119.657C141.562 123.39 138.94 126.849 136.088 130.033C135.445 130.748 134.796 131.456 134.124 132.142C132.694 133.637 131.207 135.066 129.669 136.431C129.496 136.583 129.315 136.741 129.142 136.893C128.788 137.196 128.434 137.5 128.08 137.796C127.813 138.02 127.538 138.244 127.264 138.468C127.004 138.677 126.744 138.887 126.484 139.096C126.477 139.096 126.469 139.103 126.462 139.111C125.068 140.223 123.646 141.277 122.194 142.274C121.963 142.433 121.725 142.592 121.486 142.743C121.248 142.902 121.009 143.061 120.771 143.212C120.533 143.378 120.287 143.537 120.042 143.696C119.544 144.014 119.046 144.324 118.54 144.635C118.518 144.649 118.497 144.664 118.475 144.671C118.237 144.823 117.998 144.96 117.76 145.097C117.356 145.343 116.937 145.588 116.525 145.819C116.511 145.826 116.503 145.833 116.489 145.841C116.085 146.072 115.666 146.303 115.254 146.527C114.951 146.693 114.64 146.859 114.315 147.018C114.286 147.032 114.25 147.054 114.214 147.069C113.319 147.538 112.416 147.993 111.499 148.419C111.138 148.599 110.77 148.765 110.401 148.932C110.156 149.048 109.91 149.156 109.665 149.264C109.492 149.343 109.311 149.423 109.131 149.502C109.066 149.531 108.994 149.56 108.929 149.589C108.849 149.625 108.77 149.661 108.691 149.69C108.575 149.74 108.46 149.791 108.344 149.842C108.279 149.871 108.214 149.893 108.149 149.921C108.12 149.936 108.084 149.95 108.055 149.957C107.557 150.166 107.073 150.368 106.567 150.556C106.488 150.592 106.401 150.628 106.321 150.657C106.097 150.736 105.881 150.823 105.657 150.902C105.621 150.916 105.585 150.931 105.549 150.945C105.506 150.967 105.462 150.981 105.419 150.996C105.217 151.083 105 151.155 104.791 151.234C104.654 151.285 104.517 151.335 104.372 151.386C104.278 151.422 104.184 151.458 104.083 151.494C104.004 151.523 103.917 151.552 103.838 151.581C103.39 151.74 102.943 151.892 102.488 152.043C101.86 152.245 101.232 152.447 100.603 152.635C100.596 152.635 100.589 152.642 100.581 152.642C100.502 152.671 100.429 152.685 100.35 152.714C100.213 152.757 100.076 152.793 99.9377 152.837C99.8877 152.851 99.8366 152.866 99.7856 152.88C99.4896 152.967 99.1937 153.046 98.8977 153.133C98.8327 153.147 98.7607 153.169 98.6957 153.183C98.5517 153.226 98.3997 153.263 98.2477 153.306C98.0967 153.349 97.9517 153.385 97.7997 153.422C97.4677 153.509 97.1286 153.595 96.7956 153.682C96.6946 153.704 96.5937 153.733 96.4927 153.754C96.4137 153.776 96.3407 153.79 96.2617 153.812C95.8067 153.92 95.3446 154.029 94.8896 154.137C94.7096 154.18 94.5287 154.216 94.3407 154.252C93.9297 154.346 93.5177 154.433 93.1057 154.512C93.0917 154.512 93.0767 154.519 93.0627 154.519C92.9907 154.533 92.9107 154.548 92.8387 154.562C92.2107 154.685 91.5746 154.8 90.9466 154.901C89.8056 155.096 88.6647 155.262 87.5167 155.399C87.2857 155.435 87.0617 155.457 86.8307 155.486C86.8087 155.486 86.7797 155.493 86.7587 155.493C86.3187 155.544 85.8847 155.587 85.4447 155.623C85.4157 155.623 85.3797 155.63 85.3507 155.63C85.1047 155.659 84.8667 155.681 84.6217 155.702C84.1457 155.753 83.6827 155.781 83.2067 155.81C82.7377 155.853 82.2677 155.875 81.7987 155.889C81.0477 155.94 80.3037 155.954 79.5527 155.968C79.5457 155.968 79.5457 155.968 79.5387 155.968C79.3867 155.975 79.2277 155.982 79.0837 155.975C79.0477 155.975 79.0117 155.982 78.9757 155.982C78.8027 155.989 78.6287 155.989 78.4557 155.982C78.2897 155.989 78.1237 155.996 77.9507 155.996C77.7487 155.996 77.5467 155.996 77.3437 155.989C77.2137 155.989 77.0766 155.982 76.9466 155.982C76.5996 155.975 76.2537 155.975 75.9067 155.968C75.6107 155.954 75.3217 155.946 75.0257 155.932C74.9897 155.925 74.9607 155.925 74.9247 155.925C73.7407 155.882 72.5637 155.809 71.3867 155.716C71.1697 155.694 70.9467 155.68 70.7297 155.651C70.4337 155.622 70.1307 155.593 69.8347 155.557C68.3257 155.413 66.8236 155.21 65.3216 154.965C64.7436 154.864 64.1597 154.763 63.5817 154.655C63.4017 154.619 63.2137 154.583 63.0257 154.547C62.8597 154.518 62.6937 154.489 62.5277 154.46C62.4697 154.445 62.4047 154.424 62.3467 154.417C62.0647 154.359 61.7907 154.301 61.4947 154.236C61.4157 154.222 61.3357 154.2 61.2567 154.185C60.9247 154.113 60.6067 154.041 60.2747 153.961H60.2677C59.0617 153.679 57.8557 153.369 56.6577 153.029C56.5497 153 56.4557 152.964 56.3547 152.942C56.3397 152.935 56.3187 152.935 56.3037 152.928C56.2607 152.921 56.2247 152.906 56.1807 152.892C56.1377 152.878 56.0867 152.863 56.0437 152.849C54.6647 152.445 53.2927 152.004 51.9277 151.513C51.7257 151.441 51.5237 151.368 51.3287 151.296C51.0397 151.195 50.7587 151.087 50.4767 150.978C50.1157 150.841 49.7547 150.704 49.3937 150.559C49.1557 150.465 48.9247 150.371 48.6937 150.277C48.5277 150.212 48.3618 150.147 48.2028 150.075C48.1018 150.032 48.0077 149.996 47.9067 149.952C47.8927 149.945 47.8776 149.938 47.8636 149.93C47.8056 149.908 47.7477 149.887 47.6907 149.858C47.6397 149.836 47.5827 149.815 47.5317 149.793C47.4667 149.764 47.4017 149.743 47.3367 149.714C47.3077 149.7 47.2717 149.685 47.2427 149.671C47.1197 149.628 46.9977 149.57 46.8747 149.512C46.7807 149.476 46.6866 149.433 46.5926 149.389C46.4986 149.346 46.4047 149.31 46.3187 149.259C46.3117 149.259 46.3117 149.252 46.3037 149.252C46.0657 149.144 45.8267 149.043 45.5957 148.927C45.3787 148.833 45.1628 148.739 44.9528 148.638C44.7868 148.566 44.6207 148.486 44.4547 148.414C44.1077 148.241 43.7687 148.075 43.4297 147.908C43.1477 147.763 42.8667 147.619 42.5847 147.475C42.5337 147.453 42.4767 147.425 42.4257 147.396C42.1007 147.237 41.7756 147.057 41.4576 146.89C41.4286 146.883 41.3926 146.861 41.3636 146.84C41.3126 146.818 41.2697 146.789 41.2267 146.761C40.8877 146.588 40.5546 146.407 40.2226 146.227C40.1936 146.213 40.1717 146.198 40.1437 146.176C40.0137 146.111 39.8837 146.039 39.7537 145.959C39.7177 145.937 39.6747 145.916 39.6377 145.894C39.4357 145.779 39.2337 145.663 39.0317 145.54C38.9887 145.526 38.9376 145.497 38.8946 145.461C38.6926 145.353 38.4907 145.237 38.2877 145.114C38.0997 144.998 37.9046 144.89 37.7176 144.767C37.7106 144.76 37.6957 144.76 37.6887 144.745C37.6237 144.716 37.5657 144.68 37.5007 144.637C37.4067 144.579 37.3127 144.522 37.2187 144.464C37.0377 144.356 36.8577 144.247 36.6847 144.139C36.5697 144.067 36.4536 143.995 36.3376 143.922C36.2216 143.85 36.0996 143.77 35.9836 143.698C35.7456 143.546 35.5067 143.387 35.2757 143.236C35.2327 143.207 35.1817 143.171 35.1387 143.142C35.1027 143.12 35.0666 143.092 35.0306 143.07C34.9946 143.041 34.9516 143.019 34.9156 142.991L34.8507 142.948C34.8437 142.941 34.8286 142.934 34.8216 142.934C34.6126 142.804 34.4176 142.674 34.2226 142.522C33.9696 142.37 33.7316 142.204 33.4936 142.031C33.4796 142.017 33.4577 142.009 33.4437 141.995C33.4147 141.981 33.3857 141.952 33.3567 141.937C33.2487 141.858 33.1477 141.785 33.0467 141.713C32.9457 141.641 32.8447 141.576 32.7507 141.511C32.5917 141.395 32.4327 141.287 32.2817 141.179C32.2597 141.172 32.2457 141.15 32.2307 141.136C31.6237 140.703 31.0317 140.262 30.4547 139.807C30.0717 139.518 29.6967 139.229 29.3207 138.933C28.8727 138.572 28.4177 138.204 27.9777 137.835C27.9127 137.777 27.8407 137.719 27.7687 137.662C27.1477 137.149 26.5336 136.615 25.9416 136.066C25.4656 135.647 24.9957 135.214 24.5337 134.773C24.3967 134.65 24.2667 134.528 24.1367 134.398C23.7757 134.066 23.4286 133.726 23.0826 133.38C22.8656 133.178 22.6567 132.968 22.4477 132.752L22.4407 132.745C22.0147 132.319 21.5957 131.878 21.1847 131.438C21.1197 131.373 21.0547 131.308 20.9967 131.243C20.9897 131.229 20.9677 131.221 20.9607 131.2C20.7077 130.933 20.4557 130.666 20.2167 130.391C19.7547 129.886 19.3067 129.38 18.8737 128.86C18.7217 128.701 18.5847 128.535 18.4477 128.376C17.2777 126.982 16.1447 125.56 15.0757 124.094C14.4767 123.271 13.8917 122.441 13.3207 121.596C13.2197 121.452 13.1257 121.307 13.0247 121.163C12.8657 120.925 12.7067 120.679 12.5477 120.434C12.5337 120.405 12.5257 120.391 12.5117 120.369C11.6447 119.033 10.8147 117.668 10.0417 116.282C9.94774 116.13 9.85365 115.957 9.77465 115.784C9.22565 114.824 8.72073 113.842 8.22973 112.852C7.90473 112.195 7.58673 111.552 7.27673 110.895C6.21573 108.592 5.26168 106.252 4.42468 103.869C4.04168 102.764 3.67367 101.659 3.34167 100.533C3.31267 100.446 3.28369 100.36 3.26269 100.266C3.19769 100.035 3.1257 99.8106 3.0537 99.5726C2.8727 98.9446 2.69968 98.3086 2.53368 97.6806C-2.71632 77.5266 0.0647469 55.3296 12.0727 36.3386C35.0787 -0.0764084 83.2487 -10.9364 119.657 12.0686C156.069 35.0786 166.929 83.2496 143.923 119.657Z" fill="#F7F2DA"/>
<path d="M118.475 144.669C118.237 144.821 117.998 144.959 117.76 145.096C117.356 145.342 116.937 145.587 116.525 145.818C116.511 145.825 116.503 145.832 116.489 145.84C116.085 146.071 115.666 146.301 115.254 146.525C114.951 146.691 114.64 146.857 114.315 147.016C114.286 147.03 114.25 147.053 114.214 147.068C113.319 147.537 112.416 147.991 111.499 148.417C111.138 148.597 110.77 148.763 110.401 148.93C110.156 149.046 109.91 149.154 109.665 149.262C109.492 149.341 109.311 149.422 109.131 149.501C109.066 149.53 108.994 149.559 108.929 149.588C108.849 149.624 108.77 149.66 108.691 149.689C108.575 149.739 108.46 149.789 108.344 149.84C108.279 149.869 108.214 149.891 108.149 149.919C108.12 149.934 108.084 149.949 108.055 149.956C107.557 150.165 107.073 150.367 106.567 150.555C106.488 150.591 106.401 150.627 106.321 150.656C106.097 150.735 105.881 150.821 105.657 150.9C105.621 150.914 105.585 150.929 105.549 150.943C105.506 150.965 105.462 150.98 105.419 150.995C105.217 151.082 105 151.153 104.791 151.232C104.654 151.283 104.517 151.334 104.372 151.385C104.278 151.421 104.184 151.457 104.083 151.493C104.004 151.522 103.917 151.55 103.838 151.579C103.39 151.738 102.943 151.891 102.488 152.042C101.86 152.244 101.232 152.445 100.603 152.633C100.596 152.633 100.589 152.641 100.581 152.641C100.502 152.67 100.429 152.684 100.35 152.713C100.213 152.756 100.076 152.791 99.9384 152.835C99.8884 152.849 99.8374 152.865 99.7864 152.879C99.4904 152.966 99.1943 153.045 98.8983 153.132C98.8333 153.146 98.7613 153.168 98.6963 153.182C98.5523 153.225 98.4003 153.262 98.2483 153.305C98.0973 153.348 97.9523 153.384 97.8003 153.421C97.4683 153.508 97.1294 153.593 96.7964 153.68C96.6954 153.702 96.5943 153.732 96.4933 153.753C96.4143 153.775 96.3413 153.789 96.2623 153.811C95.8073 153.919 95.3454 154.027 94.8904 154.135C94.7104 154.178 94.5293 154.215 94.3413 154.251C93.9303 154.345 93.5183 154.431 93.1063 154.51C93.0923 154.51 93.0774 154.518 93.0634 154.518C92.9914 154.532 92.9114 154.547 92.8394 154.561C92.2114 154.684 91.5754 154.799 90.9474 154.9C89.8064 155.095 88.6653 155.261 87.5173 155.398C87.2863 155.434 87.0623 155.455 86.8313 155.484C86.8093 155.484 86.7803 155.492 86.7593 155.492C86.3193 155.543 85.8853 155.586 85.4453 155.622C85.4163 155.622 85.3803 155.629 85.3513 155.629C85.1053 155.658 84.8673 155.68 84.6223 155.701C84.1463 155.752 83.6833 155.78 83.2073 155.809C82.7383 155.852 82.2683 155.873 81.7993 155.887C81.0483 155.938 80.3043 155.953 79.5533 155.967C79.5463 155.967 79.5463 155.967 79.5393 155.967C79.3873 155.974 79.2284 155.98 79.0844 155.973C79.0484 155.973 79.0123 155.98 78.9763 155.98C78.8033 155.987 78.6293 155.987 78.4563 155.98C78.2903 155.987 78.1243 155.995 77.9513 155.995C77.7493 155.995 77.5474 155.995 77.3444 155.988C77.2144 155.988 77.0774 155.98 76.9474 155.98C76.6004 155.973 76.2543 155.974 75.9073 155.967C75.6113 155.953 75.3224 155.944 75.0264 155.93C74.9904 155.923 74.9613 155.924 74.9253 155.924C73.7413 155.881 72.5643 155.808 71.3873 155.715C71.1703 155.693 70.9473 155.679 70.7303 155.65C70.4343 155.621 70.1313 155.591 69.8353 155.555C68.3263 155.411 66.8244 155.209 65.3224 154.964C64.7444 154.863 64.1603 154.762 63.5823 154.654C63.4023 154.618 63.2144 154.582 63.0264 154.546C62.8604 154.517 62.6943 154.487 62.5283 154.458C62.4703 154.443 62.4053 154.422 62.3473 154.415C62.0653 154.357 61.7914 154.299 61.4954 154.234C61.4164 154.22 61.3363 154.199 61.2573 154.184C60.9253 154.112 60.6074 154.04 60.2754 153.96H60.2683C59.0623 153.678 57.8563 153.367 56.6583 153.027C56.5503 152.998 56.4563 152.963 56.3553 152.941C56.3403 152.934 56.3193 152.933 56.3043 152.926C56.2613 152.919 56.2253 152.905 56.1813 152.891C56.1383 152.877 56.0873 152.862 56.0443 152.848C54.6653 152.444 53.2933 152.003 51.9283 151.512C51.7263 151.44 51.5243 151.366 51.3293 151.294C51.0403 151.193 50.7593 151.086 50.4773 150.977C50.1163 150.84 49.7553 150.702 49.3943 150.557C49.1563 150.463 48.9253 150.369 48.6943 150.275C48.5283 150.21 48.3624 150.146 48.2034 150.074C48.1024 150.031 48.0083 149.995 47.9073 149.951C47.8933 149.944 47.8784 149.936 47.8644 149.928C47.8064 149.906 47.7483 149.886 47.6913 149.857C47.6403 149.835 47.5833 149.814 47.5323 149.792C47.4673 149.763 47.4023 149.742 47.3373 149.713C47.3083 149.699 47.2723 149.683 47.2433 149.669C47.1203 149.626 46.9984 149.568 46.8754 149.51C46.7814 149.474 46.6874 149.431 46.5934 149.387C46.4994 149.344 46.4053 149.309 46.3193 149.258C46.9113 132.224 50.7893 122.056 56.4353 113.73C56.4353 113.723 56.4423 113.709 56.4493 113.702C56.4783 113.695 56.5073 113.695 56.5433 113.688C57.8363 113.493 61.2803 112.395 65.3453 110.995C65.4033 110.973 65.4684 110.959 65.5264 110.93C67.4684 110.266 69.5484 109.528 71.5994 108.799C72.1194 108.611 72.6393 108.424 73.1593 108.236C78.6113 106.279 83.5213 104.446 84.6263 104.027C84.7783 103.977 84.8573 103.948 84.8573 103.948C85.9553 105.009 91.1393 104.778 94.7573 105.132C95.2053 105.182 95.6233 105.233 96.0133 105.298C96.3163 105.348 96.6563 105.42 97.0243 105.521C97.2843 105.586 97.5663 105.666 97.8623 105.76C100.433 106.54 104.021 108.107 107.784 110.027C108.593 110.439 109.409 110.872 110.225 111.312C114.579 113.666 118.905 116.373 121.923 118.792C124.046 120.496 125.519 122.057 125.88 123.256C127.841 129.709 122.274 136.25 118.475 144.669Z" fill="#51415E"/>
<path d="M121.147 142.402C121.024 142.669 120.902 142.944 120.772 143.211C120.534 143.377 120.288 143.536 120.043 143.695C119.545 144.013 119.047 144.323 118.541 144.634C118.519 144.648 118.498 144.663 118.476 144.67C118.238 144.822 117.999 144.959 117.761 145.096C117.357 145.342 116.938 145.587 116.526 145.818C116.512 145.825 116.504 145.832 116.49 145.84C116.086 146.071 115.667 146.302 115.255 146.526C114.952 146.692 114.641 146.858 114.316 147.017C114.287 147.031 114.251 147.053 114.215 147.068C113.32 147.537 112.417 147.992 111.5 148.418C111.139 148.598 110.771 148.764 110.402 148.931C110.157 149.047 109.911 149.155 109.666 149.263C109.493 149.342 109.312 149.422 109.132 149.501C109.067 149.53 108.995 149.559 108.93 149.588C108.85 149.624 108.771 149.66 108.692 149.689C108.576 149.739 108.461 149.79 108.345 149.841C108.28 149.87 108.215 149.892 108.15 149.92C108.121 149.935 108.085 149.949 108.056 149.956C107.558 150.165 107.074 150.367 106.568 150.555C106.489 150.591 106.402 150.627 106.322 150.656C106.098 150.735 105.882 150.822 105.658 150.901C105.622 150.915 105.586 150.93 105.55 150.944C105.507 150.966 105.463 150.98 105.42 150.995C105.218 151.082 105.001 151.154 104.792 151.233C104.655 151.284 104.518 151.334 104.373 151.385C104.279 151.421 104.185 151.457 104.084 151.493C104.005 151.522 103.918 151.551 103.839 151.58C103.391 151.739 102.944 151.891 102.489 152.042C101.861 152.244 101.233 152.446 100.604 152.634C100.597 152.634 100.59 152.641 100.582 152.641C100.503 152.67 100.43 152.684 100.351 152.713C100.214 152.756 100.077 152.792 99.9393 152.836C99.8893 152.85 99.8384 152.865 99.7874 152.879C99.4914 152.966 99.1953 153.045 98.8993 153.132C98.8343 153.146 98.7624 153.168 98.6974 153.182C98.5534 153.225 98.4014 153.262 98.2494 153.305C98.0984 153.348 97.9534 153.384 97.8014 153.421C97.4694 153.508 97.1304 153.594 96.7974 153.681C96.6964 153.703 96.5954 153.732 96.4944 153.753C96.4154 153.775 96.3423 153.789 96.2633 153.811C95.8083 153.919 95.3464 154.028 94.8914 154.136C94.7114 154.179 94.5303 154.215 94.3423 154.251C93.9313 154.345 93.5193 154.432 93.1073 154.511C93.0933 154.511 93.0783 154.518 93.0643 154.518C92.9923 154.532 92.9123 154.547 92.8403 154.561C92.2123 154.684 91.5764 154.799 90.9484 154.9C89.8074 155.095 88.6663 155.261 87.5183 155.398C87.2873 155.434 87.0633 155.456 86.8323 155.485C86.8103 155.485 86.7814 155.492 86.7604 155.492C86.3204 155.543 85.8863 155.586 85.4463 155.622C85.4173 155.622 85.3813 155.629 85.3523 155.629C85.1063 155.658 84.8683 155.68 84.6233 155.701C84.1473 155.752 83.6844 155.78 83.2084 155.809C82.7394 155.852 82.2693 155.874 81.8003 155.888C81.0493 155.939 80.3053 155.953 79.5543 155.967C79.5473 155.967 79.5473 155.967 79.5403 155.967C79.3883 155.974 79.2293 155.981 79.0853 155.974C79.0493 155.974 79.0133 155.981 78.9773 155.981C78.8043 155.988 78.6303 155.988 78.4573 155.981C78.2913 155.988 78.1254 155.995 77.9524 155.995C77.7504 155.995 77.5483 155.995 77.3453 155.988C77.2153 155.988 77.0784 155.981 76.9484 155.981C76.6014 155.974 76.2553 155.974 75.9083 155.967C75.6123 155.953 75.3233 155.945 75.0273 155.931C76.5073 152.176 77.9663 148.414 79.3673 144.616C81.8663 137.836 93.2824 113.732 97.6364 106.15C97.7164 106.013 97.7884 105.883 97.8604 105.76C97.9324 105.637 98.0044 105.514 98.0774 105.399C98.0774 105.399 103.962 107.71 110.548 111.082C115.249 113.479 120.31 116.425 123.863 119.451C123.957 119.523 124.044 119.603 124.137 119.682C131.35 125.982 124.201 135.687 121.147 142.402Z" fill="#066FB7"/>
<path d="M99.0297 134.178L99.5067 135.593L86.8337 155.487C86.8117 155.487 86.7827 155.494 86.7617 155.494C86.3217 155.545 85.8878 155.588 85.4478 155.624C85.4188 155.624 85.3828 155.631 85.3538 155.631C85.1078 155.66 84.8698 155.682 84.6248 155.703C84.1488 155.754 83.6857 155.782 83.2097 155.811C82.7407 155.854 82.2708 155.876 81.8018 155.89C81.0508 155.941 80.3067 155.955 79.5557 155.969C79.5487 155.969 79.5487 155.969 79.5417 155.969C79.3897 155.976 79.2307 155.983 79.0867 155.976C79.0507 155.976 79.0148 155.983 78.9788 155.983C78.8058 155.99 78.6317 155.99 78.4587 155.983C78.2927 155.99 78.1267 155.997 77.9537 155.997C77.7517 155.997 77.5497 155.997 77.3467 155.99C77.2167 155.99 77.0797 155.983 76.9497 155.983C76.6027 155.976 76.2567 155.976 75.9097 155.969C77.1227 152.864 78.3217 149.752 79.4767 146.618C81.9747 139.838 93.3917 115.734 97.7457 108.16L108.751 112.355L110.657 113.084L95.9767 123.475L95.5077 123.807L99.0297 134.178Z" fill="#066396"/>
<path d="M110.547 111.086L110.222 111.317L108.749 112.357L95.4053 121.809L95.9763 123.477L99.4064 133.586L99.0314 134.178L85.3553 155.631C85.1093 155.66 84.8713 155.682 84.6263 155.703C84.1503 155.754 83.6873 155.782 83.2113 155.811C82.7423 155.854 82.2723 155.876 81.8033 155.89C81.0523 155.941 80.3084 155.955 79.5574 155.969C79.5504 155.969 79.5503 155.969 79.5433 155.969C79.3913 155.976 79.2324 155.983 79.0884 155.976C79.0524 155.976 79.0163 155.983 78.9803 155.983C78.8073 155.99 78.6333 155.99 78.4603 155.983C78.2943 155.99 78.1283 155.997 77.9553 155.997C77.7533 155.997 77.5514 155.997 77.3484 155.99C77.2184 155.99 77.0813 155.983 76.9513 155.983C76.6043 155.976 76.2584 155.976 75.9114 155.969C75.6154 155.955 75.3263 155.947 75.0303 155.933C76.5103 152.178 77.9694 148.416 79.3704 144.618C81.8694 137.838 93.2853 113.734 97.6393 106.152L107.784 110.03L110.547 111.086Z" fill="#0D8FD6"/>
<path d="M65.5396 110.868C65.5396 110.868 65.5326 110.89 65.5256 110.933C65.2446 112.247 60.7026 133.325 56.3556 152.944C56.3406 152.937 56.3196 152.937 56.3046 152.93C56.2616 152.923 56.2255 152.908 56.1815 152.894C56.1385 152.88 56.0876 152.865 56.0446 152.851C54.6656 152.447 53.2936 152.006 51.9286 151.515C51.7266 151.443 51.5246 151.37 51.3296 151.298C51.0406 151.197 50.7595 151.089 50.4775 150.98C50.1165 150.843 49.7555 150.706 49.3945 150.561C49.1565 150.467 48.9256 150.373 48.6946 150.279C48.5286 150.214 48.3626 150.149 48.2036 150.077C48.1026 150.034 48.0086 149.998 47.9076 149.954C47.8936 149.947 47.8786 149.94 47.8646 149.932C47.8066 149.91 47.7485 149.889 47.6915 149.86C47.6405 149.838 47.5836 149.817 47.5326 149.795C47.4676 149.766 47.4025 149.745 47.3375 149.716C47.3085 149.702 47.2725 149.687 47.2435 149.673C47.1205 149.63 46.9986 149.572 46.8756 149.514C46.7816 149.478 46.6876 149.435 46.5936 149.391C46.4996 149.348 46.4056 149.312 46.3196 149.261C46.3126 149.261 46.3126 149.254 46.3046 149.254C46.0666 149.146 45.8276 149.045 45.5966 148.929C45.3796 148.835 45.1636 148.741 44.9536 148.64C44.7876 148.568 44.6216 148.488 44.4556 148.416C44.1086 148.243 43.7695 148.077 43.4305 147.91C43.1485 147.765 42.8676 147.621 42.5856 147.477C42.5346 147.455 42.4776 147.427 42.4266 147.398C42.1016 147.239 41.7766 147.059 41.4586 146.892C41.4296 146.885 41.3936 146.863 41.3646 146.842C41.3136 146.82 41.2705 146.791 41.2275 146.763C40.8885 146.59 40.5556 146.409 40.2236 146.229C40.1946 146.215 40.1725 146.2 40.1445 146.178C40.6065 142.921 41.0976 139.665 41.6176 136.423C42.4696 131.123 43.0836 124.776 45.4226 119.93C47.2926 116.052 52.7446 115.114 56.4346 113.734C56.4706 113.72 56.5066 113.705 56.5426 113.691C56.6006 113.669 56.6586 113.648 56.7156 113.626L65.5396 110.868Z" fill="#066FB7"/>
<path d="M65.0775 112.125C65.0775 112.125 60.5784 133.015 56.1814 152.894C56.1384 152.88 56.0874 152.865 56.0444 152.851C54.6654 152.447 53.2935 152.006 51.9285 151.515C51.7265 151.443 51.5245 151.37 51.3295 151.298C51.0405 151.197 50.7594 151.089 50.4774 150.98C50.1164 150.843 49.7554 150.706 49.3944 150.561C49.1564 150.467 48.9255 150.373 48.6945 150.279C48.5285 150.214 48.3625 150.149 48.2035 150.077C48.1025 150.034 48.0085 149.998 47.9075 149.954C47.8935 149.947 47.8785 149.94 47.8645 149.932C47.8065 149.91 47.7484 149.889 47.6914 149.86C47.6404 149.838 47.5835 149.817 47.5325 149.795C47.4675 149.766 47.4024 149.745 47.3374 149.716C47.3084 149.702 47.2724 149.687 47.2434 149.673C47.1204 149.63 46.9985 149.572 46.8755 149.514L47.5394 138.625L47.9364 138.365L57.0134 132.357L56.7465 131.577L52.8975 120.233L53.6195 119.749L65.0775 112.125Z" fill="#066396"/>
<path d="M65.5397 110.868C65.5397 110.868 65.5328 110.89 65.5258 110.933C65.2448 112.247 60.7027 133.325 56.3557 152.944C56.3407 152.937 56.3197 152.937 56.3047 152.93C56.2617 152.923 56.2256 152.908 56.1816 152.894C56.1386 152.88 56.0877 152.865 56.0447 152.851C54.6657 152.447 53.2937 152.006 51.9287 151.515C51.7267 151.443 51.5247 151.37 51.3297 151.298C51.0407 151.197 50.7597 151.089 50.4777 150.98C50.1167 150.843 49.7557 150.706 49.3947 150.561C49.1567 150.467 48.9257 150.373 48.6947 150.279C48.5287 150.214 48.3627 150.149 48.2037 150.077C48.1027 150.034 48.0087 149.998 47.9077 149.954C47.8937 149.947 47.8787 149.94 47.8647 149.932C47.8067 149.91 47.7487 149.889 47.6917 149.86C47.6407 149.838 47.5837 149.817 47.5327 149.795C47.4677 149.766 47.4026 149.745 47.3376 149.716C47.3086 149.702 47.2727 149.687 47.2437 149.673L47.9366 138.365L47.9948 137.368L56.7467 131.577L57.4688 131.1L53.6198 119.749L53.3597 118.976L65.3467 110.997L65.5397 110.868Z" fill="#0D8FD6"/>
<path d="M134.124 132.142C132.694 133.637 131.207 135.066 129.669 136.431C129.496 136.583 129.315 136.741 129.142 136.893C128.788 137.196 128.434 137.5 128.08 137.796C127.813 138.02 127.538 138.244 127.264 138.468C127.004 138.677 126.744 138.887 126.484 139.096C126.477 139.096 126.469 139.103 126.462 139.111C125.068 140.223 123.646 141.277 122.194 142.274C121.963 142.433 121.725 142.592 121.486 142.743C121.248 142.902 121.009 143.061 120.771 143.212C120.533 143.378 120.287 143.537 120.042 143.696C119.544 144.014 119.046 144.324 118.54 144.635C118.518 144.649 118.497 144.664 118.475 144.671C118.237 144.823 117.998 144.96 117.76 145.097C117.356 145.343 116.937 145.588 116.525 145.819C116.511 145.826 116.503 145.833 116.489 145.841C116.085 146.072 115.666 146.303 115.254 146.527C114.951 146.693 114.64 146.859 114.315 147.018C114.286 147.032 114.25 147.054 114.214 147.069C113.319 147.538 112.416 147.993 111.499 148.419C111.138 148.599 110.77 148.765 110.401 148.932C110.156 149.048 109.91 149.156 109.665 149.264C109.492 149.343 109.311 149.423 109.131 149.502C109.066 149.531 108.994 149.56 108.929 149.589C108.849 149.625 108.77 149.661 108.691 149.69C108.575 149.74 108.46 149.791 108.344 149.842C108.662 148.318 108.979 146.86 109.276 145.502C110.157 141.473 110.915 138.267 111.464 136.418C111.587 135.992 111.709 135.573 111.839 135.161C111.846 135.132 111.853 135.111 111.861 135.082C112.143 134.151 112.424 133.248 112.713 132.374C112.735 132.302 112.756 132.23 112.785 132.157C112.785 132.15 112.785 132.15 112.785 132.143C115.572 123.666 118.396 118.503 121.92 118.799C122.396 118.828 122.88 118.972 123.379 119.211C123.545 119.29 123.704 119.37 123.863 119.456C129.163 122.177 132.413 126.611 134.124 132.142Z" fill="#0D8FD6"/>
<path d="M112.786 132.157C112.678 133.19 111.696 139.941 110.403 148.931C110.158 149.047 109.912 149.155 109.667 149.263C109.494 149.342 109.313 149.422 109.133 149.501C109.068 149.53 108.996 149.559 108.931 149.588C108.851 149.624 108.772 149.66 108.693 149.689C108.577 149.739 108.462 149.79 108.346 149.841C108.281 149.87 108.216 149.892 108.151 149.92C108.122 149.935 108.086 149.949 108.057 149.956C109.624 143.017 111.22 136.778 112.714 132.373C112.736 132.301 112.757 132.229 112.786 132.157Z" fill="#066396"/>
<path d="M76.8762 125.61C82.8982 124.75 93.4631 111.053 97.2281 105.22C96.4111 104.962 95.6242 104.724 94.8822 104.508C94.8712 104.502 94.8581 104.496 94.8431 104.494L94.8321 104.493C94.5391 104.408 94.2541 104.328 93.9771 104.25C93.6261 104.085 93.3041 103.844 93.0081 103.547C91.8581 103.408 90.6491 103.313 89.3691 103.26L79.5942 103.444C78.7862 103.486 77.9541 103.599 77.1091 103.769C76.0441 103.979 74.9531 104.278 73.8481 104.632C73.2891 104.809 72.7251 105.003 72.1611 105.206C70.9301 114.902 66.2372 127.127 76.8762 125.61Z" fill="white"/>
<path d="M76.1479 122.796C71.1229 123.305 72.0489 116.628 73.1809 109.196L73.184 109.174C73.394 107.609 71.4549 99.2146 71.3519 97.0826C71.2059 94.1246 70.0169 90.0596 69.0699 87.2316C68.4169 85.2816 67.8779 83.9216 67.8779 83.9216L89.9709 82.6316C89.9709 82.6316 88.9629 90.1506 89.8579 95.0786C90.1079 96.4596 90.9039 101.436 93.0089 103.548C93.3059 103.846 93.6279 104.087 93.9779 104.252C94.2459 104.38 94.5319 104.464 94.8329 104.495L94.8429 104.496C94.8609 104.498 94.8729 104.501 94.8849 104.508C95.6699 105.075 83.7809 122.019 76.1479 122.796Z" fill="#FEAC74"/>
<path d="M89.8558 95.0786C85.0658 107.853 77.0028 109.287 73.1808 109.196L73.1838 109.174C73.3938 107.609 71.4548 99.2146 71.3518 97.0826C71.2058 94.1246 70.0168 90.0596 69.0698 87.2316C70.4708 85.5876 71.6858 84.4886 71.6858 84.4886L89.9708 82.6316C89.9688 82.6316 88.9608 90.1496 89.8558 95.0786Z" fill="#E3784C"/>
<path d="M92.6917 87.5615C94.1757 76.9705 91.9118 65.8745 93.3388 55.6855C93.3388 55.6855 85.4807 47.7545 84.1327 46.9835C83.2887 46.5025 82.3957 46.1015 81.4707 45.7885C80.5117 45.6175 79.5357 45.5375 78.5637 45.5535C77.0117 45.5795 66.3047 48.7475 66.3047 48.7475C64.4737 53.5615 63.2437 55.6085 61.7667 63.1655C60.5987 69.1435 62.8927 62.4465 60.1347 72.2225C58.9507 76.4185 52.9887 81.4835 55.3197 90.3525C56.6007 95.2255 52.5537 114.853 83.6557 99.0655C87.7107 97.0085 92.0877 91.8795 92.6917 87.5615Z" fill="#FEAC74"/>
<path d="M73.1011 75.2405C73.2341 75.2935 73.3641 75.3425 73.4951 75.3915C73.6251 75.4385 73.753 75.4855 73.88 75.5285C73.995 75.5705 74.112 75.6095 74.222 75.6465C74.314 75.6755 74.4081 75.7055 74.4961 75.7335C74.5971 75.7665 74.695 75.7945 74.79 75.8225C74.98 75.8795 75.1671 75.9295 75.3521 75.9785C75.5871 76.0395 75.8201 76.0915 76.0441 76.1405C76.1581 76.1645 76.269 76.1875 76.379 76.2065C76.489 76.2275 76.5971 76.2465 76.7051 76.2655C76.7271 76.2685 76.7441 76.2735 76.7661 76.2755C77.0601 76.3215 77.343 76.3575 77.619 76.3845C77.625 76.3845 77.6351 76.3845 77.6461 76.3865C77.8471 76.4025 78.0451 76.4175 78.2371 76.4255C78.5281 76.4375 78.804 76.4395 79.071 76.4305C79.16 76.4265 79.248 76.4225 79.337 76.4185C79.423 76.4135 79.509 76.4085 79.593 76.4005C79.846 76.3805 80.0911 76.3515 80.3281 76.3135C80.4041 76.3025 80.4801 76.2875 80.5581 76.2735C80.6321 76.2605 80.707 76.2455 80.781 76.2295C80.854 76.2165 80.9271 76.2005 81.0001 76.1815C81.0721 76.1645 81.141 76.1445 81.212 76.1275C81.447 76.0665 81.6701 75.9955 81.8781 75.9205C81.9171 75.9085 81.957 75.8915 81.993 75.8785C82.054 75.8555 82.1131 75.8325 82.1721 75.8075C82.2921 75.7625 82.405 75.7115 82.515 75.6615C82.624 75.6115 82.728 75.5595 82.832 75.5065C82.885 75.4825 82.932 75.4545 82.978 75.4295C83.03 75.4015 83.077 75.3745 83.124 75.3485C83.209 75.2995 83.2921 75.2505 83.3701 75.2015C83.3801 75.1965 83.3851 75.1925 83.3911 75.1875C83.5201 75.1045 83.639 75.0235 83.749 74.9455C83.825 74.8905 83.8951 74.8385 83.9601 74.7845C84.0271 74.7315 84.091 74.6805 84.149 74.6325C84.209 74.5825 84.264 74.5325 84.316 74.4855C84.341 74.4615 84.3661 74.4405 84.3881 74.4165C84.7261 74.1005 84.8831 73.8755 84.8831 73.8755C83.5101 71.6895 81.2011 68.4205 77.6001 69.3945C74.7561 70.1615 74.9901 72.9425 73.1011 75.2405Z" fill="#E3784C"/>
<path d="M84.8811 73.8745C84.8811 73.8745 84.7261 74.1005 84.3871 74.4165C84.3651 74.4415 84.3391 74.4615 84.3141 74.4865C84.2621 74.5315 84.206 74.5815 84.149 74.6315C84.091 74.6795 84.0261 74.7315 83.9591 74.7845C83.8931 74.8395 83.824 74.8895 83.748 74.9445C83.638 75.0275 83.517 75.1075 83.39 75.1875C83.385 75.1925 83.3791 75.1955 83.3701 75.2005C83.2921 75.2495 83.212 75.3005 83.124 75.3485C83.077 75.3755 83.0291 75.4005 82.9771 75.4285C82.9321 75.4565 82.884 75.4835 82.832 75.5055C82.727 75.5575 82.623 75.6105 82.514 75.6615C82.406 75.7115 82.2941 75.7645 82.1731 75.8075C82.1131 75.8345 82.053 75.8555 81.993 75.8795C81.956 75.8915 81.9181 75.9085 81.8781 75.9195C81.6701 75.9945 81.447 76.0645 81.212 76.1275C81.141 76.1455 81.0711 76.1655 81.0011 76.1805C80.9261 76.2005 80.855 76.2155 80.781 76.2305C80.758 76.2355 80.736 76.2405 80.713 76.2465C80.663 76.2565 80.6101 76.2665 80.5581 76.2735C80.4801 76.2885 80.405 76.3035 80.327 76.3135C80.092 76.3535 79.8461 76.3805 79.5941 76.4015C79.5111 76.4095 79.425 76.4165 79.338 76.4185C79.25 76.4235 79.159 76.4285 79.072 76.4315C78.804 76.4415 78.529 76.4385 78.238 76.4265C78.047 76.4185 77.8471 76.4035 77.6471 76.3885C77.6371 76.3865 77.6271 76.3865 77.6211 76.3865C77.3461 76.3585 77.0621 76.3235 76.7671 76.2765C76.7471 76.2745 76.729 76.2685 76.707 76.2665C76.599 76.2485 76.4911 76.2285 76.3811 76.2095C76.2711 76.1895 76.16 76.1665 76.045 76.1415C75.964 76.1265 75.882 76.1065 75.796 76.0885C75.651 76.0565 75.503 76.0215 75.353 75.9815C75.17 75.9315 74.9821 75.8815 74.7921 75.8235C74.6971 75.7955 74.599 75.7675 74.498 75.7355C74.411 75.7075 74.3181 75.6785 74.2251 75.6485C74.1141 75.6125 73.9971 75.5725 73.8821 75.5305C73.7561 75.4875 73.626 75.4405 73.498 75.3955C73.365 75.3455 73.2351 75.2955 73.1021 75.2435C74.9911 72.9455 74.621 71.2885 77.468 70.5225C81.016 69.5645 83.4371 71.6295 84.8231 73.7805C84.8281 73.7875 84.8311 73.7925 84.8361 73.7975C84.8481 73.8215 84.8661 73.8495 84.8811 73.8745Z" fill="#E3784C"/>
<path d="M84.8811 73.8746C84.8811 73.8746 84.7261 74.1006 84.3871 74.4166C84.3651 74.4416 84.3391 74.4616 84.3141 74.4866C84.2621 74.5316 84.206 74.5816 84.149 74.6316C84.091 74.6796 84.0261 74.7316 83.9591 74.7846C83.8931 74.8396 83.824 74.8896 83.748 74.9446C83.638 75.0276 83.517 75.1076 83.39 75.1876C83.385 75.1926 83.3791 75.1956 83.3701 75.2006C83.2921 75.2496 83.212 75.3006 83.124 75.3486C83.077 75.3756 83.0291 75.4006 82.9771 75.4286C82.9321 75.4566 82.884 75.4836 82.832 75.5056C82.727 75.5576 82.623 75.6106 82.514 75.6616C82.406 75.7116 82.2941 75.7646 82.1731 75.8076C82.1131 75.8346 82.053 75.8556 81.993 75.8796C81.956 75.8916 81.9181 75.9086 81.8781 75.9196C81.6701 75.9946 81.447 76.0646 81.212 76.1276C81.141 76.1456 81.0711 76.1656 81.0011 76.1806C80.9261 76.2006 80.855 76.2156 80.781 76.2306C80.758 76.2356 80.736 76.2406 80.713 76.2466C80.663 76.2566 80.6101 76.2666 80.5581 76.2736C80.4801 76.2886 80.405 76.3036 80.327 76.3136C80.092 76.3536 79.8461 76.3806 79.5941 76.4016C79.5111 76.4096 79.425 76.4166 79.338 76.4186C79.25 76.4236 79.159 76.4286 79.072 76.4316C78.804 76.4416 78.529 76.4386 78.238 76.4266C78.047 76.4186 77.8471 76.4036 77.6471 76.3886C77.6371 76.3866 77.6271 76.3866 77.6211 76.3866C77.3461 76.3586 77.0621 76.3236 76.7671 76.2766C76.7471 76.2746 76.729 76.2686 76.707 76.2666C76.599 76.2486 76.4911 76.2286 76.3811 76.2096C76.2711 76.1896 76.16 76.1666 76.045 76.1416C75.964 76.1266 75.882 76.1066 75.796 76.0886C75.651 76.0566 75.503 76.0216 75.353 75.9816C75.17 75.9316 74.9821 75.8816 74.7921 75.8236C74.6971 75.7956 74.599 75.7676 74.498 75.7356C74.411 75.7076 74.3181 75.6786 74.2251 75.6486C74.1141 75.6126 73.9971 75.5726 73.8821 75.5306C73.7561 75.4876 73.626 75.4406 73.498 75.3956C73.365 75.3456 73.2351 75.2956 73.1021 75.2436C74.9911 72.9456 76.0521 67.7606 78.8961 66.9916C82.4421 66.0336 83.4791 71.5286 84.8231 73.7806C84.8281 73.7876 84.8311 73.7926 84.8361 73.7976C84.8481 73.8216 84.8661 73.8496 84.8811 73.8746Z" fill="white"/>
<path d="M76.0652 72.7047C75.6682 74.9197 76.7202 77.0047 78.4192 77.3657C80.1172 77.7257 81.8152 76.2227 82.2122 74.0097C82.6102 71.7957 81.5562 69.7097 79.8592 69.3497C78.1622 68.9897 76.4632 70.4917 76.0652 72.7047Z" fill="#580801"/>
<path d="M76.9 74.1337C76.685 75.3307 77.2871 76.4648 78.2451 76.6688C79.2021 76.8718 80.154 76.0657 80.368 74.8687C80.584 73.6727 79.98 72.5388 79.024 72.3348C78.065 72.1328 77.115 72.9377 76.9 74.1337Z" fill="#440502"/>
<path d="M82.9653 74.3117C83.3563 73.9577 82.9523 72.4797 82.9523 72.4797L78.9473 74.3147C78.9473 74.3147 82.1923 75.0087 82.9653 74.3117Z" fill="white"/>
<path d="M73.1011 75.2405C75.0641 73.1205 76.9471 68.4475 79.9351 68.6775C82.8421 68.9015 83.3751 71.8675 84.8811 73.8745C84.7891 70.1085 83.32 64.4445 79.717 65.4175C76.869 66.1865 73.6081 71.0485 73.1011 75.2405Z" fill="#580801"/>
<path d="M73.1011 75.2406C74.9901 72.9416 76.9461 68.1346 79.9351 68.3646C82.8431 68.5876 83.5081 71.6886 84.8811 73.8746C84.7891 70.1086 83.32 64.1306 79.717 65.1036C76.869 65.8736 73.6081 71.0486 73.1011 75.2406Z" fill="#E3784C"/>
<path d="M84.8831 73.8745C84.8831 73.8745 82.7481 81.4755 73.1001 75.2405C73.2331 75.2935 73.3631 75.3425 73.4961 75.3925C73.6241 75.4375 73.754 75.4845 73.88 75.5275C73.995 75.5695 74.113 75.6095 74.223 75.6455C74.316 75.6755 74.4081 75.7045 74.4961 75.7325C74.5971 75.7655 74.694 75.7925 74.79 75.8205C74.98 75.8775 75.1681 75.9275 75.3511 75.9785C75.5021 76.0185 75.6491 76.0535 75.7941 76.0855C75.8791 76.1035 75.9621 76.1235 76.0431 76.1385C76.1581 76.1635 76.268 76.1865 76.379 76.2065C76.489 76.2265 76.5971 76.2455 76.7051 76.2635C76.7271 76.2655 76.745 76.2715 76.765 76.2735C77.061 76.3215 77.344 76.3565 77.619 76.3835C77.624 76.3835 77.634 76.3835 77.645 76.3855C77.845 76.4005 78.0461 76.4155 78.2361 76.4235C78.5271 76.4355 78.8021 76.4385 79.0701 76.4285C79.1571 76.4265 79.2481 76.4205 79.3361 76.4155C79.4231 76.4125 79.508 76.4055 79.592 76.3985C79.845 76.3785 80.0901 76.3505 80.3251 76.3105C80.4031 76.3005 80.478 76.2855 80.556 76.2705C80.608 76.2625 80.6611 76.2525 80.7111 76.2435C80.7341 76.2385 80.7561 76.2335 80.7791 76.2275C80.8541 76.2125 80.924 76.1975 80.999 76.1775C81.069 76.1625 81.1391 76.1425 81.2101 76.1245C81.4461 76.0615 81.6681 75.9915 81.8761 75.9165C81.9161 75.9055 81.9541 75.8885 81.9911 75.8765C82.0511 75.8515 82.111 75.8315 82.171 75.8045C82.292 75.7615 82.4041 75.7085 82.5121 75.6585C82.6221 75.6085 82.7251 75.5555 82.8301 75.5025C82.8821 75.4805 82.9301 75.4535 82.9751 75.4255C83.0271 75.3975 83.0751 75.3725 83.1221 75.3455C83.2101 75.2975 83.29 75.2475 83.368 75.1975C83.378 75.1925 83.3831 75.1895 83.3881 75.1845C83.5151 75.1045 83.6361 75.0245 83.7461 74.9415C83.8211 74.8865 83.891 74.8365 83.957 74.7815C84.025 74.7285 84.0901 74.6765 84.1471 74.6285C84.2041 74.5785 84.26 74.5285 84.312 74.4835C84.337 74.4585 84.363 74.4385 84.385 74.4135C84.723 74.0975 84.879 73.8715 84.879 73.8715C84.864 73.8465 84.847 73.8185 84.832 73.7915C84.851 73.8215 84.8661 73.8465 84.8831 73.8745Z" fill="#E3784C"/>
<path d="M67.3157 72.4136C67.2267 72.4476 67.1387 72.4806 67.0507 72.5116C66.9637 72.5416 66.8777 72.5716 66.7927 72.5976C66.7157 72.6236 66.6377 72.6466 66.5637 72.6696C66.5027 72.6866 66.4397 72.7036 66.3807 72.7206C66.3137 72.7396 66.2497 72.7546 66.1857 72.7706C66.0597 72.8016 65.9367 72.8276 65.8147 72.8516C65.6597 72.8826 65.5077 72.9036 65.3617 72.9236C65.2877 72.9316 65.2147 72.9406 65.1437 72.9446C65.0717 72.9516 65.0016 72.9566 64.9316 72.9616C64.9166 72.9616 64.9057 72.9646 64.8927 72.9626C64.7017 72.9706 64.5197 72.9696 64.3438 72.9616C64.3397 72.9606 64.3337 72.9606 64.3267 72.9596C64.1987 72.9506 64.0717 72.9396 63.9497 72.9216C63.7667 72.8956 63.5927 72.8616 63.4257 72.8186C63.3707 72.8036 63.3147 72.7876 63.2607 72.7716C63.2067 72.7566 63.1537 72.7396 63.1017 72.7206C62.9447 72.6686 62.7938 72.6086 62.6508 72.5396C62.6038 72.5186 62.5587 72.4946 62.5107 72.4696C62.4657 72.4476 62.4217 72.4226 62.3757 72.3966C62.3317 72.3746 62.2877 72.3486 62.2437 72.3206C62.2007 72.2946 62.1597 72.2666 62.1177 72.2386C61.9767 72.1476 61.8447 72.0496 61.7227 71.9486C61.6997 71.9316 61.6767 71.9096 61.6547 71.8916C61.6187 71.8606 61.5847 71.8316 61.5497 71.7986C61.4797 71.7386 61.4147 71.6726 61.3517 71.6096C61.2887 71.5456 61.2297 71.4806 61.1707 71.4156C61.1407 71.3836 61.1146 71.3506 61.0876 71.3196C61.0586 71.2846 61.0327 71.2526 61.0057 71.2196C60.9587 71.1606 60.9117 71.1016 60.8687 71.0426C60.8637 71.0366 60.8607 71.0326 60.8577 71.0256C60.7857 70.9276 60.7206 70.8316 60.6606 70.7406C60.6196 70.6756 60.5818 70.6156 60.5468 70.5536C60.5108 70.4926 60.4767 70.4326 60.4467 70.3786C60.4157 70.3206 60.3856 70.2646 60.3586 70.2106C60.3456 70.1846 60.3327 70.1606 60.3217 70.1336C60.1467 69.7776 60.0747 69.5336 60.0747 69.5336C61.1957 67.5476 63.0337 64.6116 65.1807 66.0426C66.8757 67.1696 66.3997 69.8926 67.3157 72.4136Z" fill="#E3784C"/>
<path d="M67.3157 72.4137C67.2267 72.4487 67.1378 72.4807 67.0518 72.5107C66.9628 72.5407 66.8777 72.5707 66.7917 72.5977C66.7167 72.6227 66.6377 72.6487 66.5637 72.6687C66.5017 72.6857 66.4387 72.7037 66.3817 72.7187C66.3137 72.7387 66.2497 72.7537 66.1847 72.7687C66.0597 72.8017 65.9367 72.8267 65.8137 72.8517C65.7157 72.8717 65.6167 72.8867 65.5217 72.9017C65.4677 72.9087 65.4147 72.9167 65.3597 72.9217C65.2867 72.9317 65.2137 72.9397 65.1407 72.9437C65.0707 72.9517 64.9997 72.9557 64.9297 72.9597C64.9157 72.9597 64.9037 72.9617 64.8907 72.9617C64.7017 72.9687 64.5197 72.9667 64.3417 72.9597C64.3367 72.9567 64.3327 72.9567 64.3257 72.9567C64.1977 72.9497 64.0697 72.9367 63.9497 72.9197C63.7647 72.8947 63.5917 72.8597 63.4227 72.8177C63.3677 72.8027 63.3127 72.7867 63.2587 72.7697C63.2037 72.7547 63.1518 72.7367 63.0988 72.7197C62.9428 72.6677 62.7917 72.6077 62.6477 72.5367C62.6017 72.5157 62.5537 72.4917 62.5087 72.4687C62.4767 72.4547 62.4447 72.4367 62.4137 72.4197C62.4027 72.4127 62.3857 72.4047 62.3727 72.3967C62.3297 72.3737 62.2857 72.3467 62.2427 72.3197C62.1997 72.2947 62.1587 72.2667 62.1147 72.2387C61.9757 72.1487 61.8437 72.0487 61.7207 71.9487C61.6977 71.9307 61.6747 71.9087 61.6527 71.8907C61.6177 71.8607 61.5847 71.8307 61.5487 71.7977C61.4797 71.7377 61.4137 71.6727 61.3497 71.6097C61.2887 71.5437 61.2287 71.4797 61.1697 71.4137C61.1397 71.3807 61.1126 71.3487 61.0876 71.3187C61.0576 71.2837 61.0307 71.2507 61.0057 71.2187C60.9557 71.1607 60.9098 71.1007 60.8698 71.0437C60.8628 71.0357 60.8606 71.0307 60.8586 71.0257C60.7856 70.9277 60.7216 70.8327 60.6606 70.7407C60.6196 70.6747 60.5818 70.6147 60.5468 70.5517C60.5128 70.4917 60.4787 70.4317 60.4467 70.3767C60.4147 70.3187 60.3867 70.2647 60.3597 70.2087C60.3457 70.1837 60.3327 70.1587 60.3207 70.1327C60.1477 69.7747 60.0747 69.5317 60.0747 69.5317C61.1957 67.5447 62.9827 65.7397 65.1317 67.1707C66.7767 68.2637 66.4257 69.7887 67.2327 72.1697C67.2577 72.2527 67.2857 72.3357 67.3157 72.4137Z" fill="#E3784C"/>
<path d="M67.3157 72.4136C67.2267 72.4486 67.1378 72.4806 67.0518 72.5106C66.9628 72.5406 66.8777 72.5706 66.7917 72.5976C66.7167 72.6226 66.6377 72.6486 66.5637 72.6686C66.5017 72.6856 66.4387 72.7036 66.3817 72.7186C66.3137 72.7386 66.2497 72.7536 66.1847 72.7686C66.0597 72.8016 65.9367 72.8266 65.8137 72.8516C65.7157 72.8716 65.6167 72.8866 65.5217 72.9016C65.4677 72.9086 65.4147 72.9166 65.3597 72.9216C65.2867 72.9316 65.2137 72.9396 65.1407 72.9436C65.0707 72.9516 64.9997 72.9556 64.9297 72.9596C64.9157 72.9596 64.9037 72.9616 64.8907 72.9616C64.7017 72.9686 64.5197 72.9666 64.3417 72.9596C64.3367 72.9566 64.3327 72.9566 64.3257 72.9566C64.1977 72.9496 64.0697 72.9366 63.9497 72.9196C63.7647 72.8946 63.5917 72.8596 63.4227 72.8176C63.3677 72.8026 63.3127 72.7866 63.2587 72.7696C63.2037 72.7546 63.1518 72.7366 63.0988 72.7196C62.9428 72.6676 62.7917 72.6076 62.6477 72.5366C62.6017 72.5156 62.5537 72.4916 62.5087 72.4686C62.4767 72.4546 62.4447 72.4366 62.4137 72.4196C62.4027 72.4126 62.3857 72.4046 62.3727 72.3966C62.3297 72.3736 62.2857 72.3466 62.2427 72.3196C62.1997 72.2946 62.1587 72.2666 62.1147 72.2386C61.9757 72.1486 61.8437 72.0486 61.7207 71.9486C61.6977 71.9306 61.6747 71.9086 61.6527 71.8906C61.6177 71.8606 61.5847 71.8306 61.5487 71.7976C61.4797 71.7376 61.4137 71.6726 61.3497 71.6096C61.2887 71.5436 61.2287 71.4796 61.1697 71.4136C61.1397 71.3806 61.1126 71.3486 61.0876 71.3186C61.0576 71.2836 61.0307 71.2506 61.0057 71.2186C60.9557 71.1606 60.9098 71.1006 60.8698 71.0436C60.8628 71.0356 60.8606 71.0306 60.8586 71.0256C60.7856 70.9276 60.7216 70.8326 60.6606 70.7406C60.6196 70.6746 60.5818 70.6146 60.5468 70.5516C60.5128 70.4916 60.4787 70.4316 60.4467 70.3766C60.4147 70.3186 60.3867 70.2646 60.3597 70.2086C60.3457 70.1836 60.3327 70.1586 60.3207 70.1326C60.1477 69.7746 60.0747 69.5316 60.0747 69.5316C61.1957 67.5446 62.5038 62.0616 64.6508 63.4926C66.2968 64.5876 66.3967 69.5676 67.2327 72.1696C67.2577 72.2526 67.2857 72.3356 67.3157 72.4136Z" fill="white"/>
<path d="M65.2454 69.9727C65.2754 72.0147 64.4114 73.7367 63.3134 73.8177C62.2154 73.8987 61.3014 72.3077 61.2694 70.2657C61.2384 68.2227 62.1024 66.5027 63.2004 66.4217C64.2984 66.3407 65.2134 67.9307 65.2454 69.9727Z" fill="#580801"/>
<path d="M64.1785 70.8848C64.1945 71.9878 63.7065 72.9208 63.0865 72.9658C62.4675 73.0118 61.9515 72.1528 61.9355 71.0498C61.9185 69.9458 62.4076 69.0138 63.0266 68.9678C63.6466 68.9228 64.1615 69.7808 64.1785 70.8848Z" fill="#440502"/>
<path d="M61.1997 68.3647C61.1297 68.5337 61.0586 68.7027 60.9836 68.8687C60.9316 69.0037 60.8807 69.1397 60.8287 69.2757C60.7817 69.3977 60.7327 69.5467 60.6787 69.7077C61.3537 70.1757 62.9738 70.0547 62.9738 70.0547L61.1997 68.3647Z" fill="white"/>
<path d="M67.3147 72.6316C66.3997 70.1106 65.6077 65.3866 63.7007 65.2266C61.8497 65.0686 61.2708 67.6696 60.0728 69.5316C60.0888 69.4216 60.1027 69.3086 60.1207 69.1936C60.1327 69.1106 60.1456 69.0256 60.1606 68.9416C60.1806 68.8156 60.2008 68.6906 60.2238 68.5626C60.2408 68.4566 60.2606 68.3486 60.2806 68.2436C60.2806 68.2356 60.2827 68.2286 60.2827 68.2206C60.9497 64.6626 62.4477 60.4676 64.3547 61.7376C65.9437 62.7946 67.3047 67.7136 67.3267 71.7936C67.3327 72.0776 67.3267 72.3586 67.3147 72.6316Z" fill="#580801"/>
<path d="M67.3268 71.7956C67.3268 72.0056 67.3218 72.2116 67.3138 72.4146C66.3988 69.8936 65.6019 65.0296 63.6979 64.8696C61.8439 64.7146 61.1938 67.5456 60.0708 69.5336C60.0868 69.4236 60.1008 69.3106 60.1188 69.1956C60.1308 69.1126 60.1438 69.0276 60.1588 68.9436C60.1788 68.8176 60.1988 68.6926 60.2218 68.5646C60.2388 68.4586 60.2568 68.3506 60.2788 68.2456C60.2788 68.2376 60.2808 68.2306 60.2808 68.2226C60.9478 64.6646 62.4458 60.4696 64.3528 61.7396C65.9438 62.7966 67.3048 67.7156 67.3268 71.7956Z" fill="#E3784C"/>
<path d="M67.3157 72.4135C60.5177 77.3315 60.0737 69.5315 60.0737 69.5315C60.0737 69.5315 60.1467 69.7745 60.3197 70.1325C60.3317 70.1585 60.3446 70.1835 60.3586 70.2085C60.3856 70.2635 60.4137 70.3185 60.4457 70.3765C60.4767 70.4315 60.5117 70.4915 60.5457 70.5515C60.5807 70.6145 60.6187 70.6745 60.6597 70.7405C60.7217 70.8335 60.7857 70.9275 60.8577 71.0255C60.8597 71.0295 60.8627 71.0355 60.8687 71.0435C60.9097 71.1005 60.9556 71.1605 61.0046 71.2185C61.0296 71.2505 61.0567 71.2835 61.0867 71.3185C61.1117 71.3485 61.1397 71.3815 61.1687 71.4135C61.2277 71.4795 61.2868 71.5435 61.3488 71.6095C61.4128 71.6715 61.4787 71.7375 61.5477 71.7975C61.5837 71.8305 61.6177 71.8605 61.6517 71.8905C61.6747 71.9085 61.6977 71.9305 61.7197 71.9485C61.8427 72.0485 61.9746 72.1485 62.1136 72.2385C62.1576 72.2665 62.1977 72.2945 62.2417 72.3195C62.2847 72.3465 62.3287 72.3745 62.3717 72.3965C62.3847 72.4035 62.4017 72.4125 62.4127 72.4195C62.4437 72.4365 62.4757 72.4545 62.5077 72.4685C62.5537 72.4915 62.6017 72.5165 62.6467 72.5365C62.7897 72.6065 62.9407 72.6665 63.0977 72.7195C63.1507 72.7375 63.2027 72.7545 63.2577 72.7695C63.3117 72.7865 63.3668 72.8025 63.4218 72.8175C63.5898 72.8595 63.7637 72.8945 63.9487 72.9195C64.0697 72.9365 64.1967 72.9495 64.3247 72.9565C64.3307 72.9565 64.3357 72.9565 64.3407 72.9595C64.5187 72.9665 64.7006 72.9685 64.8896 72.9615C64.9036 72.9615 64.9147 72.9595 64.9287 72.9595C64.9987 72.9565 65.0696 72.9515 65.1396 72.9435C65.2126 72.9385 65.2856 72.9315 65.3586 72.9215C65.4136 72.9165 65.4668 72.9095 65.5208 72.9015C65.6158 72.8865 65.7147 72.8715 65.8127 72.8515C65.9357 72.8265 66.0577 72.8015 66.1837 72.7685C66.2477 72.7535 66.3117 72.7385 66.3807 72.7185C66.4377 72.7035 66.5017 72.6865 66.5627 72.6685C66.6357 72.6485 66.7156 72.6225 66.7906 72.5975C66.8766 72.5695 66.9617 72.5405 67.0507 72.5105C67.1377 72.4805 67.2267 72.4485 67.3157 72.4135Z" fill="#E3784C"/>
<path d="M67.6118 57.4727C67.2238 57.5447 66.5009 57.7257 66.5009 57.7257L65.8909 59.3077C65.8909 59.3077 65.5388 58.1007 65.3358 58.1697C59.9738 60.0117 59.5068 64.2067 59.5068 64.2067C60.8508 63.1477 62.2988 62.2947 63.7888 61.7767C65.8308 61.0687 67.1328 61.1467 68.3728 61.8817C68.2448 60.3967 68.0278 58.9107 67.6118 57.4727Z" fill="#440502"/>
<path d="M79.2991 56.2976C79.6831 56.3896 80.395 56.6056 80.395 56.6056L80.921 58.2186C80.921 58.2186 81.336 57.0316 81.536 57.1116C86.795 59.2306 87.0431 63.4436 87.0431 63.4436C85.7551 62.3166 84.354 61.3886 82.894 60.7946C80.889 59.9816 79.5861 59.9926 78.3081 60.6626C78.5161 59.1866 78.8071 57.7126 79.2991 56.2976Z" fill="#440502"/>
<path d="M66.5349 98.7925C63.5969 97.2715 62.1279 99.6716 62.1279 99.6716C62.3179 98.9996 62.4289 98.0646 63.1289 97.6786C64.2009 97.0866 65.9479 97.8215 66.5349 98.7925Z" fill="#E3784C"/>
<path d="M57.3687 83.7178C57.3687 83.7178 59.7857 97.3968 65.2767 96.5458C73.1807 95.3208 75.5157 90.2458 75.6327 87.7398C71.8587 86.8168 59.3067 84.1748 57.3687 83.7178Z" fill="#873421"/>
<path d="M75.7036 87.9526C75.6546 88.2786 75.5846 88.6566 75.5026 89.0466C75.2596 90.1886 74.8865 91.4136 74.4675 91.6246C74.4475 91.6356 74.4246 91.6436 74.4026 91.6536C74.3046 91.6936 74.1816 91.7296 74.0376 91.7576C71.4446 92.3196 61.6505 91.5866 60.5615 91.5326C60.3815 90.8916 60.2046 90.2476 60.0426 89.5976C59.6346 87.9806 59.3056 86.3386 59.2216 84.6516C59.2036 84.3486 59.1976 84.0436 59.1996 83.7366C59.3776 83.7836 59.5626 83.8296 59.7606 83.8776C60.6896 84.1126 61.8126 84.3906 63.0126 84.6926C67.5086 85.8156 73.1066 87.2116 75.4286 87.8726L75.7036 87.9526Z" fill="white"/>
<path d="M75.5015 89.0475C75.2585 90.1895 74.8854 91.4145 74.4664 91.6255C74.4464 91.6365 74.4235 91.6445 74.4015 91.6545C74.3035 91.6945 74.1805 91.7305 74.0365 91.7585C71.4435 92.3205 61.6494 91.5875 60.5604 91.5335C60.3804 90.8925 60.2035 90.2485 60.0415 89.5985C60.4545 90.1235 60.9814 89.9025 61.5714 90.1785C61.2484 88.7265 61.2134 86.8165 61.7434 85.4065C61.4124 91.6325 64.8075 90.7335 66.0415 90.9005C66.1105 90.1555 66.1535 88.6905 66.2765 87.9625C66.2945 88.5225 66.2984 90.1435 66.5094 90.6565C66.7554 91.2595 70.1175 91.0185 71.3135 90.8765C72.7545 90.7055 74.2845 90.1325 75.5015 89.0475Z" fill="#E8E6E6"/>
<path d="M74.4288 91.9197C74.0908 92.3977 73.6868 92.8717 73.2138 93.3307C71.6078 94.8917 69.1848 96.2627 65.6458 96.8637C65.5428 96.8837 65.4398 96.8987 65.3348 96.9167C65.0988 96.9547 64.8608 96.9667 64.6308 96.9567C64.6278 96.9567 64.6277 96.9567 64.6277 96.9567C64.1847 96.9367 63.7608 96.8287 63.3598 96.6487C63.2098 96.5827 63.0617 96.5087 62.9157 96.4207C62.4027 96.1157 61.9237 95.6887 61.4827 95.1827C61.4257 95.0697 61.3678 94.9517 61.3148 94.8317C61.3128 94.8317 61.3127 94.8297 61.3097 94.8267C61.0437 94.2307 60.8407 93.5687 60.7857 92.8747C60.7677 92.6867 60.7628 92.4957 60.7708 92.3027C60.7758 92.1827 60.7858 92.0627 60.7978 91.9427C65.0528 91.9077 69.3728 91.9577 73.5848 91.8047C73.7328 91.7997 73.8837 91.7917 74.0307 91.7867C74.1557 91.7817 74.2837 91.7797 74.4097 91.7717C74.4147 91.7937 74.4167 91.8197 74.4197 91.8397C74.4237 91.8697 74.4288 91.8917 74.4288 91.9197Z" fill="white"/>
<path d="M74.4285 91.9197C74.0905 92.3977 73.6865 92.8717 73.2135 93.3307C71.6075 94.8917 69.1845 96.2627 65.6455 96.8637C66.3225 96.6307 66.9335 96.3627 67.2765 96.1767C67.6705 95.9637 68.0534 95.6987 68.3844 95.3857C68.9834 94.8247 69.4114 94.1107 69.4094 93.2857C68.6524 92.6467 61.0845 92.3057 60.7715 92.3027C60.7765 92.1827 60.7865 92.0627 60.7985 91.9427C65.0535 91.9077 69.3734 91.9577 73.5854 91.8047C73.7334 91.7997 73.8845 91.7917 74.0315 91.7867C74.1565 91.7817 74.2844 91.7797 74.4104 91.7717C74.4154 91.7937 74.4174 91.8197 74.4204 91.8397C74.4234 91.8697 74.4285 91.8917 74.4285 91.9197Z" fill="#E8E6E6"/>
<path d="M76.0028 87.4447L75.7208 87.3727C74.5148 87.0767 72.4348 86.6147 70.0808 86.1017C69.5828 85.9937 69.0768 85.8777 68.5648 85.7697C67.1348 85.4517 65.6549 85.1347 64.2399 84.8237C64.1099 84.8017 63.9869 84.7727 63.8649 84.7447C63.5979 84.6867 63.3378 84.6367 63.0848 84.5787C61.8578 84.3187 60.7169 84.0736 59.7709 83.8636C59.6839 83.8496 59.6118 83.8346 59.5328 83.8206C59.4608 83.7986 59.3888 83.7847 59.3158 83.7707C59.2938 83.7637 59.2729 83.7637 59.2509 83.7567C59.2369 83.7497 59.2218 83.7427 59.1998 83.7427C58.3838 83.5627 57.7698 83.4317 57.4598 83.3527L56.9038 83.2227L56.9978 83.7857C57.0048 83.8147 57.0198 83.8867 57.0408 83.9877C57.2788 85.2727 58.6578 91.9447 61.4818 95.1877C61.9218 95.6927 62.4059 96.1197 62.9119 96.4227C63.0639 96.5097 63.2079 96.5817 63.3599 96.6537C63.4399 96.6897 63.5188 96.7187 63.5978 96.7477C63.6698 96.7767 63.7418 96.7987 63.8218 96.8197C63.9008 96.8417 63.9808 96.8627 64.0598 96.8847C64.1388 96.8987 64.2189 96.9137 64.2979 96.9277C64.4059 96.9417 64.5218 96.9496 64.6298 96.9566C64.6808 96.9636 64.7378 96.9637 64.7888 96.9637C64.9698 96.9637 65.1498 96.9497 65.3378 96.9207C65.4388 96.8987 65.5398 96.8847 65.6488 96.8627C65.9308 96.8117 66.2119 96.7617 66.4789 96.7037C66.6229 96.6677 66.7679 96.6387 66.9119 96.6027C66.9699 96.5957 67.0278 96.5737 67.0848 96.5597C67.2368 96.5237 67.3808 96.4876 67.5178 96.4436C67.9078 96.3426 68.2838 96.2197 68.6448 96.0897C68.8248 96.0247 68.9989 95.9596 69.1719 95.8876C69.3159 95.8366 69.4528 95.7717 69.5908 95.7147C69.6488 95.6927 69.7058 95.6717 69.7638 95.6427C69.8938 95.5777 70.0238 95.5197 70.1538 95.4547C70.4858 95.2957 70.8038 95.1227 71.1068 94.9417C71.2148 94.8767 71.3159 94.8187 71.4169 94.7467C71.4239 94.7397 71.4388 94.7327 71.4458 94.7247C71.4528 94.7247 71.4679 94.7177 71.4749 94.7097C71.5979 94.6307 71.7129 94.5506 71.8289 94.4716C71.8579 94.4496 71.8868 94.4357 71.9158 94.4067C71.9368 94.3927 71.9588 94.3776 71.9808 94.3636C72.0598 94.2986 72.1399 94.2406 72.2189 94.1826C72.2979 94.1246 72.3708 94.0677 72.4498 94.0027C72.5728 93.9017 72.6958 93.8076 72.8038 93.7066C72.8178 93.6996 72.8258 93.6847 72.8398 93.6777C72.9698 93.5617 73.0928 93.4467 73.2158 93.3307C73.6848 92.8757 74.0898 92.3987 74.4288 91.9227C75.5188 90.3917 75.9598 88.8467 76.0098 87.7567V87.6987L76.0248 87.4456L76.0028 87.4447ZM70.9628 94.1457C70.2258 94.6147 69.3668 95.0336 68.3848 95.3876C67.4538 95.7196 66.3988 95.9947 65.2148 96.1747C65.0338 96.2037 64.8468 96.2177 64.6658 96.2037C64.6588 96.2037 64.6588 96.2037 64.6588 96.2037C63.9948 96.1747 63.3808 95.9007 62.8098 95.4527C62.1818 94.9617 61.6038 94.2397 61.0908 93.4087C61.0908 93.4017 61.0908 93.4017 61.0908 93.4017C60.9828 93.2287 60.8818 93.0556 60.7878 92.8746C59.1268 89.8856 58.1669 85.7337 57.8489 84.2317C57.8489 84.2247 57.8489 84.2247 57.8489 84.2247C57.8489 84.2177 57.8489 84.2177 57.8489 84.2177C58.2029 84.2967 58.6719 84.3977 59.2139 84.5137C59.2209 84.5137 59.2209 84.5137 59.2289 84.5137C59.4819 84.5717 59.7628 84.6367 60.0588 84.7017C60.8888 84.8817 61.8638 85.0917 62.9178 85.3157C62.9318 85.3157 62.9468 85.3227 62.9608 85.3297H62.9678C62.9748 85.3297 62.9748 85.3297 62.9818 85.3297C63.5528 85.4527 64.1448 85.5747 64.7438 85.7127H64.7509C66.1089 86.0017 67.5018 86.3047 68.8528 86.6007C69.0698 86.6437 69.2788 86.6947 69.4958 86.7377C69.9648 86.8457 70.4269 86.9397 70.8749 87.0487C70.9039 87.0487 70.9399 87.0557 70.9689 87.0627C72.6949 87.4457 74.2039 87.7847 75.2289 88.0307C75.1779 88.4857 75.0629 88.9987 74.8539 89.5547C74.7309 89.8867 74.5798 90.2337 74.3848 90.5877C74.3708 90.6097 74.3558 90.6377 74.3418 90.6597C74.2838 90.7747 74.2188 90.8837 74.1538 90.9917C73.9878 91.2587 73.7928 91.5326 73.5908 91.8076C73.5768 91.8226 73.5688 91.8297 73.5618 91.8367L73.5548 91.8437C72.9198 92.6507 72.0678 93.4527 70.9628 94.1457Z" fill="#E3784C"/>
<path d="M52.168 83.2967C53.194 82.5647 58.2709 84.4147 59.8519 84.8407C60.7509 85.0847 62.1149 85.6217 63.1429 85.2817C64.1549 84.9477 64.358 83.6597 64.625 82.7797C64.625 82.7797 52.501 80.2967 52.168 83.2967Z" fill="#440502"/>
<path d="M79.7032 88.9497C78.9522 87.6677 71.3781 87.1647 69.1281 86.8487C67.8451 86.6697 65.7822 86.5787 64.7502 85.7147C63.7362 84.8637 64.3931 83.3917 64.6841 82.3237C64.6841 82.3237 81.4032 85.5877 79.7032 88.9497Z" fill="#440502"/>
<path d="M70.081 82.6025C68.136 83.7085 65.177 83.5055 63.22 82.4535C63.045 82.3615 62.835 82.2595 62.608 82.1475C61.875 81.7915 60.965 81.3365 60.504 80.7415C60.248 80.4115 60.1329 80.0415 60.2549 79.6205C60.4909 78.8005 61.241 78.5675 62.011 78.7285C62.011 78.7285 62.016 78.7365 62.027 78.7495C62.114 78.8765 62.598 79.5515 63.509 80.3015C64.811 81.3715 66.974 82.5925 70.081 82.6025Z" fill="#E3784C"/>
<path d="M63.295 80.3936C62.692 80.8866 62.16 81.3416 61.656 81.6336C61.164 80.9846 60.557 80.1676 60.415 79.4286C61.258 79.1016 62.008 78.7356 62.675 78.3406C69.87 74.0796 67.63 64.2786 67.63 64.2786C70.171 68.4706 68.05 76.5116 63.295 80.3936Z" fill="#E3784C"/>
<path d="M91.3161 80.4536C91.3111 80.4306 91.3051 80.4076 91.2991 80.3846C88.9681 71.2636 91.5331 59.5496 89.8451 60.0686C86.1931 61.1876 86.647 57.2066 85.551 54.4536C83.785 55.9846 80.166 56.2716 79.494 54.1646C79.379 54.1476 79.2651 54.1296 79.1521 54.1106C78.4241 55.8966 76.6 56.9736 74.739 56.4586C73.176 56.0266 71.0221 54.6526 71.6011 52.7366C69.7631 54.4506 66.553 55.3806 64.348 53.7356C62.653 52.4726 63.4851 50.8926 64.6911 49.6656C61.0661 48.8666 55.5971 48.5706 54.7561 43.9716C53.6561 37.9356 62.5591 39.8636 65.7071 41.0226C64.8181 40.5546 63.9601 38.8626 63.6021 37.5056C63.4811 37.0466 63.4211 36.6246 63.4331 36.3036C63.5221 34.1596 66.0581 33.1176 67.8771 33.5136C70.4091 34.0616 71.6741 36.0766 73.0551 37.9556C73.7381 32.8606 86.1371 33.1156 89.1671 39.3726C90.9781 38.7526 92.9071 38.8156 94.4901 40.2586C94.7651 40.5086 95.0111 40.8016 95.2281 41.1166C100.661 41.8526 104.606 49.2936 104.45 53.7826C103.958 67.9206 91.8701 78.8376 91.3161 80.4536Z" fill="#580801"/>
<path d="M99.15 55.8716C97.347 57.2836 96.3681 60.1646 95.6751 62.3406C94.8211 65.0176 93.6611 67.6446 93.1411 70.4346C92.6081 73.2886 92.3001 76.1556 91.6641 78.9996C91.5611 79.4546 91.4351 79.9176 91.2991 80.3846C88.9681 71.2636 91.5331 59.5496 89.8451 60.0686C86.1931 61.1876 86.647 57.2066 85.551 54.4536C83.785 55.9846 80.166 56.2716 79.494 54.1646C79.379 54.1476 79.2651 54.1296 79.1521 54.1106C78.4241 55.8966 76.6 56.9736 74.739 56.4586C73.176 56.0266 71.0221 54.6526 71.6011 52.7366C69.7631 54.4506 66.553 55.3806 64.348 53.7356C62.653 52.4726 63.4851 50.8926 64.6911 49.6656C61.0661 48.8666 55.5971 48.5706 54.7561 43.9716C53.6561 37.9356 62.5591 39.8636 65.7071 41.0226C64.8181 40.5546 63.9601 38.8626 63.6021 37.5056C63.6021 37.5056 80.6261 54.8066 85.2471 44.9956C87.2951 46.2816 89.509 53.6146 90.525 54.1576C92.061 54.9766 94.9611 51.1156 95.7571 49.9746C95.4031 51.3126 93.8741 53.7226 94.6961 55.0356C95.4701 56.2696 98.003 56.0396 99.15 55.8716Z" fill="#440502"/>
<path d="M74.8621 44.9227C74.8541 44.8127 74.8431 44.7037 74.8251 44.5967C74.8191 44.7057 74.8331 44.8137 74.8621 44.9227Z" fill="#44322E"/>
<path d="M91.8407 72.9416C93.1497 70.7486 97.7337 70.3326 99.5097 72.1386C101.485 74.1466 97.9398 84.7386 95.5778 84.7436C90.0868 84.7496 91.8407 72.9416 91.8407 72.9416Z" fill="#FEAC74"/>
<path d="M92.3989 78.5316C92.3119 77.7376 92.2268 76.8496 92.2588 76.0486C92.2758 75.6216 92.3769 75.1586 92.4429 74.7436C92.4789 74.5166 92.5449 74.2326 92.6199 74.0796C93.3309 72.6236 95.0218 72.5776 96.2068 72.4556C96.6968 72.4046 97.5479 72.3256 97.9789 72.5726C98.3239 72.7706 98.4959 73.2986 98.6929 73.6116C97.7259 72.6396 95.6049 73.1626 94.5729 73.8476C93.4969 74.5616 93.1389 76.5536 93.5369 77.7546C94.5459 77.6376 95.4609 78.7666 95.3469 79.7136C95.2369 80.6596 93.3759 81.2056 93.0749 80.2876C94.6889 79.9586 93.3479 78.6686 92.3989 78.5316Z" fill="#E3784C"/>
</svg>
